<svg xmlns="http://www.w3.org/2000/svg" width="32" height="54" viewBox="0 0 32 54"><path d="M20.22,24.18v-.05A4.22,4.22,0,0,0,22.92,20a4.34,4.34,0,0,0-2.14-3.81c-1.1-.66-3.22-.66-4.83-.66H9.34V33.82h8.81a5.18,5.18,0,0,0,5.54-5.24A4.18,4.18,0,0,0,20.22,24.18Zm-8.45-6.57h4.85c2.09,0,3.88.36,3.88,2.89,0,1.92-1.12,2.92-3.88,2.92H11.77Zm6.07,14.16H11.77V25.46h5.54c2,0,4,.66,4,3A3.13,3.13,0,0,1,17.84,31.77Z" style="fill:#4c4c4c"/><path d="M16,8.71a16,16,0,1,0,16,16A16,16,0,0,0,16,8.71Zm0,29.87A13.88,13.88,0,1,1,29.89,24.7,13.87,13.87,0,0,1,16,38.58Z" style="fill:#4c4c4c"/><rect x="0.09" y="44.05" width="31.88" height="2.1" style="fill:#4c4c4c"/><path d="M31.36,40.93a1,1,0,0,0-.37-.08.91.91,0,0,0-.37.08.92.92,0,0,0-.31.2,1,1,0,0,0-.21.29,1,1,0,0,0-.07.38.92.92,0,0,0,.07.38,1,1,0,0,0,.21.3.79.79,0,0,0,.31.2.91.91,0,0,0,.37.08,1,1,0,0,0,.37-.08.83.83,0,0,0,.3-.2,1,1,0,0,0,.28-.68.94.94,0,0,0-.28-.67A1,1,0,0,0,31.36,40.93Zm.41.87a.79.79,0,0,1-.06.32.78.78,0,0,1-.17.26.76.76,0,0,1-.25.18.73.73,0,0,1-.3.06.78.78,0,0,1-.31-.06.76.76,0,0,1-.25-.18.65.65,0,0,1-.17-.26.79.79,0,0,1-.06-.32.87.87,0,0,1,.06-.32.81.81,0,0,1,.42-.42A.78.78,0,0,1,31,41a.73.73,0,0,1,.3.07.62.62,0,0,1,.25.17.74.74,0,0,1,.17.25A.87.87,0,0,1,31.77,41.8Z" style="fill:#4c4c4c"/><path d="M31.35,41.79a.27.27,0,0,0,.09-.22.3.3,0,0,0-.1-.24.4.4,0,0,0-.29-.08h-.44v1.11h.18v-.48H31l.31.48h.18l-.32-.49A.44.44,0,0,0,31.35,41.79Zm-.38,0h-.18v-.35h.32l.07,0a.1.1,0,0,1,.06,0,.2.2,0,0,1,0,.09.25.25,0,0,1,0,.1.2.2,0,0,1-.07.06l-.09,0Z" style="fill:#4c4c4c"/><path d="M.75,5.17a2.64,2.64,0,0,0,.89.64A3.06,3.06,0,0,0,2.84,6a3,3,0,0,0,1-.16,2.36,2.36,0,0,0,.78-.47,2.37,2.37,0,0,0,.53-.75,2.94,2.94,0,0,0,.25-1H4.14a1.62,1.62,0,0,1-.4.93,1.15,1.15,0,0,1-.9.36,1.49,1.49,0,0,1-.73-.17,1.38,1.38,0,0,1-.49-.44,2,2,0,0,1-.27-.62,3.27,3.27,0,0,1-.08-.7,3.57,3.57,0,0,1,.08-.74,2,2,0,0,1,.27-.63,1.41,1.41,0,0,1,.49-.45,1.49,1.49,0,0,1,.73-.16,1.31,1.31,0,0,1,.44.07,1.36,1.36,0,0,1,.39.22A1.43,1.43,0,0,1,4,1.68a1.06,1.06,0,0,1,.14.4H5.32a2.44,2.44,0,0,0-.27-.89A2.08,2.08,0,0,0,4.49.54a2.26,2.26,0,0,0-.75-.4A3,3,0,0,0,2.84,0a3.06,3.06,0,0,0-1.2.23A2.66,2.66,0,0,0,.75.88a3,3,0,0,0-.56,1A3.87,3.87,0,0,0,0,3.05,3.68,3.68,0,0,0,.19,4.22,2.81,2.81,0,0,0,.75,5.17Z" style="fill:#4c4c4c"/><path d="M6.17,5.41a1.88,1.88,0,0,0,.67.45A2.48,2.48,0,0,0,7.73,6a2.25,2.25,0,0,0,1.21-.32,1.92,1.92,0,0,0,.74-1.08h-1A.7.7,0,0,1,8.36,5a1,1,0,0,1-.59.18A1.08,1.08,0,0,1,7,4.91a1.2,1.2,0,0,1-.28-.81h3a2.84,2.84,0,0,0-.08-.93,2.13,2.13,0,0,0-.37-.79,1.69,1.69,0,0,0-.65-.56,2,2,0,0,0-.92-.2,2,2,0,0,0-.87.17,2,2,0,0,0-.68.46,2.17,2.17,0,0,0-.43.7,2.49,2.49,0,0,0-.16.87,2.52,2.52,0,0,0,.15.89A2,2,0,0,0,6.17,5.41ZM6.79,3.1A.8.8,0,0,1,7,2.8a1,1,0,0,1,.29-.23,1,1,0,0,1,.45-.09.82.82,0,0,1,.63.23,1.35,1.35,0,0,1,.29.66H6.74A1.57,1.57,0,0,1,6.79,3.1Z" style="fill:#4c4c4c"/><path d="M11.42,4a2.19,2.19,0,0,1,.05-.52,1.28,1.28,0,0,1,.19-.43A1,1,0,0,1,12,2.79a1.27,1.27,0,0,1,.54-.11l.21,0,.2,0V1.66a.81.81,0,0,0-.25,0,1.42,1.42,0,0,0-.42.06,1.33,1.33,0,0,0-.38.18,1.47,1.47,0,0,0-.32.29,1.31,1.31,0,0,0-.21.36h0V1.73H10.27V5.91h1.15Z" style="fill:#4c4c4c"/><path d="M14,5a1.08,1.08,0,0,0,.1.51.84.84,0,0,0,.29.3,1.1,1.1,0,0,0,.42.14,2.78,2.78,0,0,0,.51,0h.34l.33,0V5l-.17,0h-.19a.55.55,0,0,1-.39-.1.57.57,0,0,1-.09-.38V2.5H16V1.73h-.84V.48H14V1.73h-.69V2.5H14Z" style="fill:#4c4c4c"/><rect x="16.69" y="1.73" width="1.15" height="4.18" style="fill:#4c4c4c"/><rect x="16.69" y="0.14" width="1.15" height="0.95" style="fill:#4c4c4c"/><path d="M19,5.91h1.15V2.5h.79V1.73h-.79V1.48a.53.53,0,0,1,.1-.37A.45.45,0,0,1,20.56,1,2.77,2.77,0,0,1,21,1V.17l-.29,0h-.31a1.43,1.43,0,0,0-1.05.35,1.27,1.27,0,0,0-.35.92v.32H18.3V2.5H19Z" style="fill:#4c4c4c"/><rect x="21.7" y="0.14" width="1.15" height="0.95" style="fill:#4c4c4c"/><rect x="21.7" y="1.73" width="1.15" height="4.18" style="fill:#4c4c4c"/><path d="M23.8,5.41a1.88,1.88,0,0,0,.67.45,2.46,2.46,0,0,0,.88.15,2.26,2.26,0,0,0,1.22-.32,1.92,1.92,0,0,0,.74-1.08h-1A.7.7,0,0,1,26,5a1,1,0,0,1-.6.18,1,1,0,0,1-.74-.25,1.2,1.2,0,0,1-.28-.81h3a2.84,2.84,0,0,0-.08-.93,2.3,2.3,0,0,0-.37-.79,1.77,1.77,0,0,0-.65-.56,2.06,2.06,0,0,0-.93-.2,2,2,0,0,0-.86.17A1.95,1.95,0,0,0,23.38,3a2.28,2.28,0,0,0-.16.87,2.52,2.52,0,0,0,.15.89A2,2,0,0,0,23.8,5.41Zm.62-2.31a.94.94,0,0,1,.15-.3,1,1,0,0,1,.3-.23,1,1,0,0,1,.45-.09.82.82,0,0,1,.63.23,1.26,1.26,0,0,1,.28.66H24.37A1,1,0,0,1,24.42,3.1Z" style="fill:#4c4c4c"/><path d="M28.18,5.34a1.65,1.65,0,0,0,.59.49,1.8,1.8,0,0,0,.82.18,1.75,1.75,0,0,0,.74-.15,1.14,1.14,0,0,0,.53-.49h0v.54H32V.14H30.82v2.1h0a1.19,1.19,0,0,0-.52-.47,1.84,1.84,0,0,0-1.52,0,1.8,1.8,0,0,0-.58.48,2,2,0,0,0-.34.69,2.74,2.74,0,0,0-.12.81,2.94,2.94,0,0,0,.12.84A2.17,2.17,0,0,0,28.18,5.34Zm.74-2a1.25,1.25,0,0,1,.17-.43,1,1,0,0,1,.31-.3,1,1,0,0,1,.48-.11.92.92,0,0,1,.46.11,1,1,0,0,1,.31.3,1.31,1.31,0,0,1,.16.42,2.65,2.65,0,0,1,.05.5,2.73,2.73,0,0,1-.05.5,1.23,1.23,0,0,1-.16.43.79.79,0,0,1-.3.3.89.89,0,0,1-.47.12A.85.85,0,0,1,29.42,5a1,1,0,0,1-.32-.31,1.5,1.5,0,0,1-.18-.43,2.63,2.63,0,0,1-.05-.49A2,2,0,0,1,28.92,3.32Z" style="fill:#4c4c4c"/><path d="M2,52.31C1.19,52.31.89,51.63.89,51s.3-1.39,1.11-1.39a.86.86,0,0,1,.88.71h.87A1.65,1.65,0,0,0,2,48.8a2.13,2.13,0,0,0,0,4.26A1.71,1.71,0,0,0,3.78,51.4H2.92A.92.92,0,0,1,2,52.31Z" style="fill:#4c4c4c"/><path d="M5.65,49.94a1.55,1.55,0,0,0,0,3.1,1.55,1.55,0,0,0,0-3.1Zm0,2.49c-.55,0-.72-.47-.72-.93s.17-1,.72-1,.71.47.71,1S6.2,52.43,5.65,52.43Z" style="fill:#4c4c4c"/><path d="M8.45,50.56h0V50H7.67V53h.8V51.63c0-.51.21-.94.8-.94a1.23,1.23,0,0,1,.29,0V50a.52.52,0,0,0-.18,0A1,1,0,0,0,8.45,50.56Z" style="fill:#4c4c4c"/><path d="M11.53,49.94a1,1,0,0,0-.88.46h0V50H9.88v4h.8V52.6h0a1.05,1.05,0,0,0,.89.44,1.36,1.36,0,0,0,1.29-1.52C12.87,50.69,12.45,49.94,11.53,49.94Zm-.17,2.49c-.52,0-.71-.45-.71-.93s.18-1,.7-1,.71.48.71,1S11.89,52.43,11.36,52.43Z" style="fill:#4c4c4c"/><path d="M14.64,49.94a1.55,1.55,0,0,0,0,3.1,1.55,1.55,0,0,0,0-3.1Zm0,2.49c-.55,0-.71-.47-.71-.93s.16-1,.71-1,.71.47.71,1S15.19,52.43,14.64,52.43Z" style="fill:#4c4c4c"/><path d="M17.44,50.56h0V50h-.77V53h.81V51.63c0-.51.2-.94.79-.94a1.23,1.23,0,0,1,.29,0V50a.51.51,0,0,0-.17,0A1,1,0,0,0,17.44,50.56Z" style="fill:#4c4c4c"/><path d="M21.46,50.78c0-.71-.7-.84-1.29-.84s-1.33.23-1.38,1h.81a.46.46,0,0,1,.53-.45c.29,0,.53.05.53.4s-.46.31-1,.39-1,.23-1,.89.44.88,1,.88a1.32,1.32,0,0,0,1-.36,1.27,1.27,0,0,0,.06.28h.82a1.38,1.38,0,0,1-.11-.65Zm-.8,1a.6.6,0,0,1-.66.67c-.26,0-.49-.07-.49-.37s.23-.38.48-.43a1.67,1.67,0,0,0,.67-.18Z" style="fill:#4c4c4c"/><path d="M23.1,49.14h-.81V50H21.8v.54h.49V52.3c0,.58.43.7.92.7a3.64,3.64,0,0,0,.48,0v-.63a1.1,1.1,0,0,1-.25,0c-.28,0-.34-.07-.34-.34V50.56h.59V50H23.1Z" style="fill:#4c4c4c"/><rect x="24.3" y="48.9" width="0.81" height="0.67" style="fill:#4c4c4c"/><rect x="24.3" y="50.02" width="0.81" height="2.94" style="fill:#4c4c4c"/><path d="M27.16,49.94a1.55,1.55,0,1,0,1.53,1.56A1.44,1.44,0,0,0,27.16,49.94Zm0,2.49c-.54,0-.71-.47-.71-.93s.17-1,.71-1,.72.47.72,1S27.72,52.43,27.16,52.43Z" style="fill:#4c4c4c"/><path d="M30.89,49.94a1.06,1.06,0,0,0-.9.49h0V50h-.77V53H30V51.42c0-.6.18-.84.62-.84s.52.24.52.72V53H32V51.15C32,50.43,31.75,49.94,30.89,49.94Z" style="fill:#4c4c4c"/></svg>