<?xml version="1.0" encoding="UTF-8"?>
<svg width="215px" height="91px" viewBox="0 0 215 91" version="1.1" xmlns="http://www.w3.org/2000/svg" xmlns:xlink="http://www.w3.org/1999/xlink">
    <!-- Generator: sketchtool 54.1 (76490) - https://sketchapp.com -->
    <title>00099466-BFC8-45F3-B65B-CFDB56477A1C</title>
    <desc>Created with sketchtool.</desc>
    <defs>
        <polygon id="path-1" points="0.00606666667 0.28111298 13.8262704 0.28111298 13.8262704 10 0.00606666667 10"></polygon>
    </defs>
    <g id="The-Village---desktop" stroke="none" stroke-width="1" fill="none" fill-rule="evenodd">
        <g id="The-Village" transform="translate(-1049.000000, -1428.000000)">
            <g id="Space-concept" transform="translate(-18.000000, 1428.000000)">
                <g id="Acquerello" transform="translate(941.000000, 0.000000)">
                    <g id="Illustrazione" transform="translate(126.000000, 0.000000)">
                        <path d="M101.06175,3.01307315 C103.265116,2.81839753 103.438391,4.85428235 105,5.37029003 C103.333571,6.54538023 100.550484,6.24515758 101.06175,3.01307315" id="Fill-1" fill="#7F7977"></path>
                        <path d="M47,33.4841427 C46.1521099,34.0420418 45.5785371,33.3823875 44.6495987,34.0718666 C45.0392541,36.3964466 45.6736131,39.4315585 45.1717369,41.1210456 C43.8157361,39.1192753 42.6140389,36.9561002 41.7801764,34.3648514 C40.9229345,34.1578322 40.1140099,33.8929179 39.1741611,33.7771275 C37.9896087,36.3946922 39.8085201,39.5947177 38.6535815,42 C37.3848636,39.2262937 35.0609588,35.4473162 35.0001726,31.7227251 C34.9830278,30.717454 36.2517457,29.55955 35.0001726,28.7858596 C40.1077755,25.7718005 43.0442185,32.3174667 47,33.4841427" id="Fill-3" fill="#7F7977"></path>
                        <path d="M148.7473,43 C154.806911,43.8767457 157.925702,48.9981118 158,55.2524749 C155.216415,53.4074652 155.679482,48.1122143 151.638013,47.5960509 C149.080778,48.8681557 148.415551,52.1445122 147.012527,54.6411324 C149.649244,55.3934131 153.649244,54.9358214 155.688121,54.0279595 C153.077322,56.370829 149.820302,58.0236501 145.277754,58.3165088 C145.476458,60.3500462 146.860475,61.1297824 148.168467,61.9937155 C144.012959,62.1053679 138.739525,60.7472358 137.758099,56.4788206 C136.330886,56.1530153 135.534341,55.1591262 134,54.9468036 C134.59784,54.234791 136.14946,55.1023848 136.890713,55.2524749 C137.739093,54.9962235 136.514039,54.4800601 136.890713,53.7222883 C140.31879,54.1707281 142.231533,56.6087766 146.14514,54.9468036 C147.045356,51.6118755 146.093305,46.3166245 148.7473,44.8376882 L148.7473,43 Z" id="Fill-5" fill="#7F7977"></path>
                        <path d="M82.0137541,51 C86.5978906,51.6891058 88.7696116,51.4999004 91.7801164,54.3339972 C91.6980615,55.0211113 90.6422878,54.6486756 90.5602329,55.333798 C90.8355728,56.9251145 91.696238,57.8731328 93,58.3351922 C92.5933721,58.8888668 91.6433582,58.8510257 91.1692629,59.334993 C90.009553,58.7335192 88.3265148,57.233818 86.8969353,58.0025891 C86.9151697,59.0920135 87.7648943,59.2732523 87.5096122,60.6673969 C87.1339829,60.2949612 86.8805243,60.3766182 86.8969353,61 C83.3941007,59.4664409 81.8350567,55.6763593 82.0137541,51" id="Fill-7" fill="#7F7977"></path>
                        <path d="M57.327818,61.0121911 C60.5249914,60.9248088 63.8996898,61.3378886 68,61.2775154 C67.0623923,61.9193779 65.6508101,62.124329 64.5391244,62.6073147 C64.8459152,63.8290776 65.7697346,64.485239 67.1347811,64.7330869 C63.1706308,65.1207464 57.7190624,63.1633836 53,65 C54.521889,63.9212262 55.6025508,62.4357277 57.9034816,62.0750772 C57.8655636,61.5777927 57.7156153,61.1853669 57.327818,61.0121911" id="Fill-9" fill="#7F7977"></path>
                        <path d="M86,72.2535906 C84.7928303,73.3343217 84.0475198,71.2645164 81.8149229,71.7966739 C81.9132972,72.78438 82.3901626,73.4588109 83.208837,73.856903 C78.5702376,74.6093107 75.268862,72.2823189 74,69.5066184 C75.1037932,69.0127653 76.8195081,69.7118205 78.1867445,69.7337087 C80.6877866,67.5448863 85.3880784,70.8130718 86,72.2535906" id="Fill-11" fill="#7F7977"></path>
                        <path d="M215,74.4627886 C213.277816,74.6146315 212.607614,73.6240371 210.815409,73.8572245 C208.563065,75.014123 210.05518,77.4508406 212.209161,77.7888719 C211.755691,78.7107754 210.286917,78.5282023 209.419989,79 C207.697805,76.1276379 202.906365,76.5831667 203.001393,71.7404617 C204.488507,71.6392331 205.498811,72.0568012 206.350734,72.647904 C208.314657,69.1826314 213.686272,71.8633822 215,74.4627886" id="Fill-13" fill="#7F7977"></path>
                        <g id="Group-17" transform="translate(139.000000, 81.000000)">
                            <mask id="mask-2" fill="white">
                                <use xlink:href="#path-1"></use>
                            </mask>
                            <g id="Clip-16"></g>
                            <path d="M13.8262704,2.6554375 C11.3507333,3.6679375 7.56075185,3.2160625 7.05856667,6.4204375 C7.78825185,7.7010625 8.11012222,9.4354375 9.59645556,9.8760625 C4.83580741,10.6691875 1.12502963,7.5848125 0.00606666667,3.2816875 C0.0431407407,2.5898125 1.20254815,3.1523125 1.69799259,2.9704375 C1.20086296,2.5823125 0.557122222,2.3573125 0.287492593,1.7141875 C1.41825185,0.9923125 2.10412222,3.4504375 3.3916037,3.5985625 C4.11117778,-1.3251875 11.5866593,-0.0051875 13.8262704,2.6554375" id="Fill-15" fill="#7F7977" mask="url(#mask-2)"></path>
                        </g>
                        <path d="M115.410749,12.7784232 C114.36096,13.0605809 113.12561,13.160166 112.534567,13.8887967 C111.689237,12.2987552 109.240875,12.2556017 107.646432,11.3892116 C105.022818,13.2282158 107.62066,19.1651452 104.485037,20 C103.761696,16.3452282 102.369995,13.3360996 102.758297,8.61078838 C103.189553,8.28547718 103.933511,8.26390041 104.196388,7.77593361 C104.278859,7.32946058 103.923202,7.29792531 103.909457,6.94439834 C102.199898,6.84647303 101.309897,6.42987552 99.595184,5.83236515 C98.8117079,6.08962656 99.9955128,6.70207469 99.595184,7.49875519 C96.1726305,7.12697095 93.1040157,2.26390041 96.4303529,0.278838174 C97.9801236,0.109543568 99.08833,1.11701245 100.746344,0 C103.186116,1.81078838 106.053707,3.20497925 107.357783,6.10954357 C113.039703,6.92116183 115.481193,10.8564315 118,14.7219917 C117.256041,15.0589212 116.39353,13.13361 115.410749,12.7784232 M105.92141,5.55352697 C104.667161,5.19004149 104.527991,3.75103734 102.758297,3.88879668 C102.345941,6.17427386 104.581253,6.38672199 105.92141,5.55352697" id="Fill-18" fill="#7F7977"></path>
                        <path d="M135.876529,1.02412066 C138.644747,0.743634808 138.97627,2.98924236 140.870924,3.6156034 C142.503675,7.59230766 146.82342,10.2887575 145.862003,16 C143.476695,14.9262382 142.679382,12.202256 141.981526,9.37674829 C140.52614,7.81428725 138.127571,7.22750398 136.708652,5.63234826 C133.386791,6.69578541 129.958843,7.64737236 127,9.08937936 C129.014002,7.14662769 131.725861,3.43492233 135.59805,2.46440688 C136.544548,2.34567361 135.178673,0.88645889 135.876529,1.02412066" id="Fill-20" fill="#7F7977"></path>
                        <path d="M102,36.3023233 C100.282692,37.0269749 98.1298854,35.9211975 95.8025272,36.3023233 C95.4375551,36.9945023 95.0126359,37.6336998 94.3285336,38.0182437 C94.90861,39.6487099 96.4566559,40.340889 98.1633852,40.8792505 C91.6185718,41.6927745 86.8986189,38.2626427 84,34.5864029 C86.0611225,33.9779689 87.6585366,33.8275695 88.1310608,35.1572369 C88.4660594,35.1042553 88.2967969,34.8718199 88.1310608,34.8718199 C88.1874816,34.5505121 88.4272701,34.7128751 88.4255069,34.8718199 C89.5204232,35.6511622 90.3438143,34.1950226 90.493682,33.1576086 C95.0761093,32.4244115 99.1930649,34.3813128 102,36.3023233" id="Fill-22" fill="#7F7977"></path>
                        <path d="M63.0467301,33.0335151 C69.3067584,32.5357632 69.5610487,37.727617 73.9980401,38.9622544 C74.0541336,39.6034864 72.8911295,39.0951063 72.4349028,39.2580714 C72.8630828,40.9497194 71.612199,41.0471442 71.8103958,42.5173723 C70.5239862,40.7708122 69.5629185,38.7160355 66.803121,38.3688491 C65.4886647,39.433436 66.1935723,43.1408908 67.1153746,44 C64.9071626,42.288867 62.6447271,37.3202044 63.0467301,33.0335151" id="Fill-24" fill="#7F7977"></path>
                        <path d="M127,37.585835 C125.652124,40.6689012 120.406582,42.5033518 116.748577,44.318566 C116.600816,46.3086564 117.148615,47.6342174 118.554154,48.1203731 C117.943285,49.1818712 115.564681,48.538327 114.335736,49 C113.68162,43.585835 110.115516,40.9976683 108,37 C110.304723,39.1579714 112.584219,40.4240746 115.541256,41.3893908 C118.487481,39.278636 123.619499,39.2803847 127,37.585835" id="Fill-26" fill="#7F7977"></path>
                        <path d="M127,53.0164175 C128.299906,52.7439084 129.845017,55.9573571 132,55.7226216 C131.344546,56.6049034 127.553285,55.2963202 127,53.0164175" id="Fill-28" fill="#7F7977"></path>
                        <path d="M210,43.082189 C208.950901,43.7602196 207.921362,44.4562654 206.726456,45 C206.177013,44.3203317 205.826721,43.4539594 204.94121,43.082189 C199.866417,43.0952911 195.735813,41.405128 196.013202,37.3254806 C202.442933,35.7696135 206.577093,40.1391435 210,43.082189" id="Fill-30" fill="#7F7977"></path>
                        <path d="M13.0180383,65.8989245 C12.3568207,65.9814179 12.3568207,66.6632504 13.0180383,66.7457437 C11.3252537,67.5302721 10.8145434,67.8787642 8.77339346,68.436015 C10.2395716,66.6093772 11.764938,64.8399797 13.0180383,62.8012162 C13.9853439,61.9779665 15.6832018,61.8853719 15.5648253,59.9812914 C14.5755355,59.0183081 13.6099211,60.462783 12.7339346,60.5435928 C12.2739572,59.1294216 9.38556933,60.1243921 8.48928974,59.1361557 C4.51521984,61.2843492 3.52423901,66.4039857 0,69 C1.97519729,65.1446999 1.40022548,58.7472587 4.81116122,56.3212816 C4.72998873,55.4609941 4.85512965,54.3969986 3.96223224,54.348176 C9.63754228,52.6949425 13.7181511,57.3701253 17.8308906,59.1361557 C21.8455468,58.2556658 26.9509583,60.168164 30,58.2910201 C29.4994363,60.0503164 25.6640361,60.9223887 22.9244645,61.3920955 C23.2305524,62.8702412 24.2722661,63.6194152 25.753664,63.9275025 C23.7801578,65.9595319 22.0197294,63.5369219 19.246336,63.3652011 C17.2356257,64.3702728 15.2570462,65.4056481 13.5828636,66.7457437 C12.9825254,66.8770596 13.0467869,66.3433784 13.0180383,65.8989245" id="Fill-32" fill="#7F7977"></path>
                    </g>
                </g>
            </g>
        </g>
    </g>
</svg>