<?xml version="1.0" encoding="UTF-8"?>
<svg width="111px" height="100px" viewBox="0 0 111 100" version="1.1" xmlns="http://www.w3.org/2000/svg" xmlns:xlink="http://www.w3.org/1999/xlink">
    <!-- Generator: sketchtool 54.1 (76490) - https://sketchapp.com -->
    <title>DD5C4B8F-0BC0-47FB-AF17-A6265A023BC3</title>
    <desc>Created with sketchtool.</desc>
    <g id="About-Davines---desktop" stroke="none" stroke-width="1" fill="none" fill-rule="evenodd">
        <g id="About-Davines" transform="translate(-1147.000000, -1894.000000)">
            <g id="A-story-of-craftmanship" transform="translate(0.000000, 70.000000)">
                <g id="Mission" transform="translate(43.000000, 1806.000000)">
                    <g id="Testo-focus" transform="translate(880.000000, 0.000000)">
                        <g id="Illustrazione" transform="translate(275.811137, 62.719283) rotate(-20.000000) translate(-275.811137, -62.719283) translate(224.311137, 14.719283)">
                            <path d="M50.3215635,1.52197023 C48.7336211,1.48021513 44.6911455,4.0353056 41.2183282,6.21620621 C37.7455109,8.39710681 34.2533285,11.6331265 34.2533285,11.6331265 C34.2533285,11.6331265 29.9187619,11.1673966 28.7068262,11.3022977 C27.4965041,11.4371987 25.824646,13.2294558 25.824646,15.8327252 C25.824646,18.4359946 27.1850479,19.7336144 29.0021447,20.1527713 C30.8208553,20.5719282 31.8100918,20.1527713 31.8100918,20.1527713 C31.8100918,20.1527713 32.4814171,21.9675119 32.3619986,24.6125364 C32.2409664,27.2591669 32.8267623,32.7114184 33.399648,33.8131104 C33.9725338,34.9164085 34.6180389,36.4533171 34.6180389,36.4533171 C34.6180389,36.4533171 32.7589843,35.6246391 31.8230019,34.8248685 C30.8870195,34.0267038 29.7428618,32.1557545 24.9386903,30.3956167 C20.1345188,28.633873 21.4287565,28.2837726 17.6590068,29.2425338 C13.890871,30.2012949 10.4761491,33.0020981 9.04635539,34.2772344 C7.61494789,35.5523706 5.47993987,37.1358522 5.12168455,38.8172977 C4.765043,40.4971372 7.38740736,40.4602 7.38740736,40.4602 L7.67627088,42.0790128 C7.67627088,42.0790128 8.64775601,41.7321243 9.04635539,41.1716425 C9.44334101,40.6127667 9.04635539,39.8354796 9.04635539,39.8354796 L10.898955,39.0260732 L11.3782425,41.00944 C11.3782425,41.00944 12.4659185,40.7139425 12.8193325,40.1727322 C13.1743603,39.631522 12.014065,38.1251267 12.014065,38.1251267 L14.4460053,37.1888491 L14.6670908,39.0999475 C14.6670908,39.0999475 15.4562208,39.3360244 15.7499256,38.2600278 C16.0436304,37.1824252 15.7241054,36.4163799 15.7241054,36.4163799 C15.7241054,36.4163799 17.9769181,35.4640426 18.8047783,36.8515964 C19.6342524,38.2391503 23.5314892,42.5848918 25.7520267,44.2261881 C27.9709504,45.8674845 38.0924699,49.7635558 38.0924699,49.7635558 C38.0924699,49.7635558 36.2495529,54.2554402 35.5427249,65.7959054 C34.8342831,77.3379765 35.1360567,78.4798177 35.1360567,78.4798177 C35.1360567,78.4798177 31.1097188,81.9856395 22.7213804,82.0354244 C14.3346557,82.0836034 10.5665198,77.3973972 10.5665198,77.3973972 C10.5665198,77.3973972 8.45733202,73.3873024 8.20074375,71.6046811 C7.94415548,69.8220599 5.79946488,71.3830579 5.79946488,71.3830579 L5.79946488,72.671042 L4.14535813,72.486356 C4.14535813,72.486356 3.57408614,73.8273368 3.54503841,74.6560148 C3.51760444,75.4846928 4.87639262,75.5376897 5.27337824,75.611564 C5.67036386,75.6870444 5.98666135,75.5746268 5.98666135,75.5746268 L6.04152928,76.5687192 L3.91459006,76.7517993 C3.91459006,76.7517993 3.11416377,77.8053124 3.36106946,78.6645037 C3.60797515,79.5220891 6.04152928,79.4000357 6.04152928,79.4000357 L6.04152928,80.7602881 C6.04152928,80.7602881 3.91136254,80.5033337 3.80162668,81.1296601 C3.69189081,81.7559865 3.63379536,83.7329295 4.14535813,83.6397836 C4.65530713,83.5450316 5.65422624,83.6879625 6.04152928,83.6397836 C6.42721856,83.5916046 6.68542059,84.1793878 6.68542059,84.1793878 C6.68542059,84.1793878 8.69939642,89.7826001 12.8193325,91.8639308 C16.9392687,93.9452616 20.9849717,96.1293741 27.0446506,93.2611205 C33.1043295,90.3928668 39.9918686,88.4175297 39.9918686,88.4175297 C39.9918686,88.4175297 49.8777788,82.6344494 54.4221345,82.7083238 C58.968104,82.7821982 64.5468816,85.8704691 64.5468816,85.8704691 C64.5468816,85.8704691 71.7168292,89.5786425 73.9438217,90.3719893 C76.1692004,91.165336 82.7033255,94.7145189 82.7033255,94.7145189 C82.7033255,94.7145189 83.8184355,95.628313 86.5973349,95.5110776 C89.3746205,95.3938421 92.5763256,95.3039081 93.9560927,93.2611205 C95.3971828,91.1283988 96.5494093,88.9362565 96.5494093,88.9362565 C96.5494093,88.9362565 97.551556,90.43141 97.9259489,90.3735952 C98.3003419,90.3157805 98.4810833,88.9153789 98.4714007,87.6354247 C98.4617181,86.3570765 98.8328835,85.968433 98.8328835,85.968433 L97.0980887,85.9074063 L97.3934072,84.4218886 L99.0152387,84.6210282 L99.3137848,80.9208847 L98.7231477,80.723351 L97.5321908,80.9208847 L97.6887258,78.7480139 L99.0152387,79.1784125 L99.1136782,75.1345924 L97.9259489,75.4638153 C97.9259489,75.4638153 97.9582242,74.3990604 97.177163,74.2513116 C96.3961019,74.1051688 96.2411807,74.418332 95.205145,77.5965369 C94.1707231,80.7731359 91.8743389,85.3340767 89.9765539,85.6713294 C88.0803828,86.0069761 85.5322515,85.4641599 82.509674,84.2066892 C79.4870965,82.9492186 72.8222566,79.8400701 72.8222566,79.8400701 C72.8222566,79.8400701 70.6485183,72.0077784 70.2370088,69.3980851 C69.8254993,66.7883918 68.3472927,62.2290569 68.0568154,56.564818 C67.7663381,50.9021851 68.2407844,49.1388354 68.2407844,49.1388354 C68.2407844,49.1388354 72.2800324,48.3535184 72.9190824,47.8861826 C73.5565186,47.4172408 76.0352581,43.8760877 76.7017421,41.380418 C77.3698399,38.8831423 84.2396276,33.9191041 84.2396276,33.9191041 L84.6817986,34.9083786 L86.5311706,34.1246677 L86.3181539,32.4946131 C86.3181539,32.4946131 88.017446,31.8297436 88.4515482,32.0883039 C88.8856504,32.3468643 88.3853839,34.6048512 88.3853839,34.6048512 L90.1137238,34.1246677 L90.8157105,32.3870134 L92.5956908,32.635938 C92.5956908,32.635938 92.2939171,34.4394368 93.1443701,34.6000333 C93.9932093,34.7606299 94.470883,34.7975671 94.470883,34.7975671 L94.8436622,33.4373146 L95.7296179,33.5850634 C95.7296179,33.5850634 96.5219754,32.224811 95.8861529,30.2382321 C95.2503304,28.2532593 91.8501324,26.4931215 89.7812887,26.2698924 C87.7124449,26.0466632 83.7829328,26.0836004 80.4343752,27.7746817 C77.0842039,29.4673689 75.9965278,31.5519116 71.6764851,34.6000333 C67.3548286,37.6481551 66.5011482,38.0785537 66.1348241,37.4827407 C65.7701137,36.8869276 67.2789818,35.2552671 67.2676855,32.7162363 C67.2563891,30.1772055 68.2714459,22.974452 69.0670309,22.9230611 C69.8626159,22.8700643 70.6791798,21.6720143 72.3429691,21.9289687 C74.0051447,22.1859231 74.274643,21.822975 74.8152535,21.8550943 C75.355864,21.8872136 77.4037289,20.260371 77.4408454,18.4295708 C77.477962,16.5971646 76.1143325,15.8471789 73.921229,15.1598258 C71.7297393,14.4740787 68.3150174,13.6919737 68.3150174,13.6919737 C68.3150174,13.6919737 65.2133656,12.2819364 64.02725,10.6069148 C62.8411344,8.93189319 58.3613292,6.00743074 58.3613292,6.00743074 C58.3613292,6.00743074 53.1666271,1.59584462 50.3215635,1.52197023" id="Fill-1" fill="#FEFEFE"></path>
                            <path d="M74.7422103,20.9821304 C73.8816884,21.677652 72.8088507,21.4560556 71.838954,21.5983949 C70.4090399,21.8070514 69.6128561,22.5381578 69.260605,23.9081735 C68.6413509,26.3085317 68.1942012,28.7412397 67.7985219,31.1852702 C67.6312429,32.2091426 67.4784399,33.2362501 67.4189272,34.2762974 C67.3803243,34.978289 67.1101044,35.6204333 66.7626787,36.2286103 C66.6870814,36.3612447 66.5310615,36.5100539 66.6340025,36.6604807 C66.7578533,36.8432573 66.9685606,36.7478253 67.1454903,36.7154754 C68.6542185,36.4421193 69.9844085,35.7676251 70.9929081,34.6305282 C72.1204331,33.3591795 73.5358711,32.4727938 74.8355006,31.4327465 C75.2086615,31.1351279 75.5834309,30.8439794 75.9276396,30.514011 C78.190732,28.3449542 80.6580977,26.4929258 83.7447176,25.6938847 C86.950363,24.8624938 90.1077548,25.0792377 93.1445126,26.4346961 C95.5427149,27.5054758 97.0144488,30.1856601 96.5367384,32.440444 C96.432189,32.9337791 96.3405073,33.4028517 95.6488728,33.2783049 C95.2612358,33.2087527 95.2322837,33.5257811 95.2145907,33.7942848 C95.1792047,34.3442321 94.8140861,34.4946589 94.3540687,34.5464186 C93.3455692,34.6564081 92.4705711,33.8832469 92.5477768,32.8965767 C92.6153318,32.0441584 91.8995706,32.2916347 91.5103251,32.131503 C90.9988373,31.9228465 91.1645079,32.4323565 91.0808684,32.6539529 C90.9361077,33.0372985 91.0921275,33.5920983 90.6433694,33.7910498 C90.0369829,34.0627885 89.3533906,34.0595535 88.6939252,34.0627885 C88.4349644,34.064406 88.4027954,33.7894323 88.4253137,33.5662184 C88.4510489,33.3284471 88.5282546,33.0922933 88.5266462,32.8561394 C88.5250377,32.4986737 88.7389619,32.0021036 88.3963616,31.8160921 C88.0006823,31.6009656 87.5181466,31.8629993 87.1015575,32.0247485 C86.6785345,32.1897327 86.9117601,32.5342585 86.9970081,32.7752648 C87.2254083,33.4303491 87.2479266,33.9269192 86.3825793,34.0514661 C86.1606129,34.0838159 85.9515141,34.2504176 85.7456322,34.370112 C84.7178312,34.9669665 84.6679692,34.9443217 84.507124,33.6875303 C83.7559768,34.0870509 83.1351142,34.6143533 82.4981671,35.1141583 C79.6544235,37.3414448 77.6551174,40.2335206 76.1721244,43.4879146 C75.7523183,44.409885 75.3534222,45.2898007 74.7245174,46.1098692 C73.791615,47.3278407 72.5740167,47.9538101 71.1682294,48.3452431 C70.6567416,48.4875824 70.1549045,48.7415287 69.6385913,48.7690261 C68.6365256,48.8224033 68.53841,49.3545582 68.5142832,50.2231514 C68.4065169,54.1245422 68.5818382,58.0065231 69.2155684,61.8561541 C69.5115236,63.6628927 69.900769,65.4663963 70.4009977,67.2262277 C71.0443786,69.4874815 71.2888633,71.826375 71.8855991,74.0908638 C72.326315,75.7633506 72.8201099,77.4212799 73.2881695,79.0856792 C73.3412484,79.2765433 73.4329302,79.3849153 73.6307698,79.4738773 C77.0873337,81.0185822 80.5374638,82.5778445 83.9875939,84.1371069 C85.3740798,84.7630763 86.7058782,85.3825757 88.3320235,85.3502259 C90.5661637,85.3081711 91.9719509,84.2778287 93.0270956,82.4144778 C94.0179022,80.6675864 94.8542974,78.8867277 95.2033315,76.8858901 C95.3464838,76.0690566 95.7469884,75.3266278 96.1716198,74.6181662 C96.4547074,74.1442411 96.4048454,73.7657479 96.1217578,73.2982927 C95.3464838,72.0188565 94.3476349,70.9254319 93.3680875,69.8158324 C93.266755,69.7009905 93.1718563,69.5812961 93.1203858,69.4243993 C94.4521843,70.5242939 95.5555826,71.832845 96.5866005,73.2449155 C96.499744,71.1923181 96.0574197,69.2303003 95.3127063,67.1857904 C95.7469884,67.6257482 95.8161518,67.7325027 96.0236422,68.3730295 C96.4820511,69.79157 96.7474457,71.2570178 97.0289248,72.7176131 C97.0675277,72.9181821 96.9967558,73.1705109 97.2830603,73.2335931 C97.6272691,73.3096152 97.6706973,73.0055267 97.7495114,72.8017227 C98.5038755,70.8316174 99.0813099,68.8210748 99.0491409,66.6778979 C99.0475324,66.4999737 98.9880197,66.3042572 99.2518058,66.0066387 C99.3257947,67.4187092 99.2775411,68.6819705 98.992845,69.9387618 C98.7129743,71.1729082 98.1628837,72.3407375 98.1323231,73.6622285 C99.7053894,72.0609113 101.283281,70.4854741 102.484795,68.5493361 C102.475144,69.0329663 102.484795,69.0394362 102.16793,69.5149789 C101.296149,70.8251474 100.197576,71.9509219 99.1971185,73.154336 C99.0620085,73.3177026 98.8979464,73.4681294 98.8062646,73.654141 C98.6598954,73.953377 98.2545654,74.1879134 98.4154107,74.5631715 C98.5939489,74.978867 98.9815859,74.6683085 99.2711073,74.6828659 C99.6925218,74.7055108 99.8549754,74.8996099 99.7874205,75.2942779 C99.5895808,76.4524022 99.4705554,77.612144 99.5976231,78.7912957 C99.6523105,79.2911007 99.3113186,79.1762588 99.0137549,79.1293515 C98.7435349,79.0872967 98.3993262,78.8010006 98.2159626,79.0824443 C98.0229483,79.3816803 98.0213399,79.8361955 98.1757513,80.1645464 C98.352681,80.5398046 98.7499687,80.3214432 99.0378817,80.2696834 C99.6876964,80.1516065 99.9321812,80.4249626 99.8774938,81.0460796 C99.7938543,82.0003999 99.7198655,82.9563377 99.6088823,83.907423 C99.5011159,84.827776 99.3917412,84.8876232 98.4893995,84.6822017 C98.3607233,84.6530868 98.2272218,84.6352944 98.100154,84.5980921 C97.7945481,84.50913 97.6723057,84.6288244 97.6337029,84.9410004 C97.5967085,85.2483239 97.6015338,85.4084556 97.9939962,85.4666853 C99.33062,85.6640193 99.3000594,85.6818118 99.0587916,86.9709529 C98.9172478,87.7279392 98.9059886,88.5091878 98.7789209,89.2677916 C98.7194082,89.6171699 98.910814,90.2010845 98.352681,90.2366693 C97.7993735,90.2738716 97.4632069,89.8468537 97.2026377,89.3616061 C97.3264885,89.3082289 97.3522237,89.285584 97.3715252,89.2904365 C97.7495114,89.3745461 97.9795201,90.0183079 98.3510726,89.7692141 C98.6936729,89.5411477 98.5424784,88.9782605 98.5521291,88.5593301 C98.5682136,87.9204207 98.5280023,87.2831289 98.6872391,86.6506895 C98.7612279,86.3546884 98.8689942,85.9600204 98.3478557,85.9551679 C97.9570018,85.9503154 97.4615985,85.7723913 97.3586575,86.4339455 C97.1624264,87.7004418 96.8519951,88.9362057 96.3469411,90.1169749 C95.4783768,92.1469274 94.2897306,93.8760264 92.2421709,94.9063688 C90.9184147,95.5727755 89.5061936,95.6196828 88.1261416,95.4999884 C86.6495824,95.3722065 85.0845584,95.3883814 83.7897543,94.4308262 C83.46163,94.1882024 83.1431565,93.9310211 82.8874126,93.5864953 C82.956576,93.6026702 83.0402155,93.5978178 83.0932945,93.6350201 C85.4191164,95.3317692 88.0907556,95.2897144 90.7189666,94.9451886 C93.0480055,94.6378651 94.4843534,92.9750833 95.5587995,90.9516008 C96.8005246,88.6127073 97.1141728,86.0505999 97.45999,83.493345 C97.7816805,81.1188667 97.5693648,78.7104211 97.9103567,76.3343253 C97.9907793,75.7762905 97.8814045,75.1842885 97.8170664,74.6116963 C97.7848974,74.3221652 97.6690888,74.0277817 97.3313139,73.950142 C96.9501107,73.86118 96.94046,74.2251157 96.8005246,74.4256847 C96.0558112,75.488377 95.5861432,76.6626762 95.3770444,77.9453474 C95.0537455,79.9219226 93.8956598,81.5086823 92.9707998,83.2102839 C92.3306358,84.3878181 91.3736067,85.1318645 90.1640506,85.5362375 C88.7518295,86.0069277 87.2800957,85.8112111 85.8276633,85.7513639 C85.752066,85.7497464 85.6636012,85.725484 85.6056969,85.6801943 C83.3297369,83.8944831 80.5503314,83.1569067 77.988067,81.96805 C76.9055786,81.4666275 75.8359579,80.9393251 74.7470357,80.455695 C74.3207958,80.2680659 73.9540687,79.8297256 73.3653752,80.1920438 C73.1064144,80.350558 73.0372509,79.9801523 72.9745213,79.7439985 C71.956371,75.9153949 71.0025588,72.0722338 70.2401525,68.1789305 C69.8042619,65.9597314 69.1737486,63.7809696 68.8327567,61.5391257 C68.250497,57.7347844 68.0671335,53.9094157 68.150773,50.0646372 C68.1748998,48.9598901 68.1491645,48.9598901 67.0457663,48.8401957 C66.9669521,48.8304908 66.884921,48.8304908 66.8109322,48.8062284 C66.5841405,48.7350587 66.1546837,48.8693106 66.194895,48.5086098 C66.2367148,48.1479091 66.6291771,48.3128933 66.8624027,48.3614181 C68.4306437,48.683299 69.9039859,48.3096583 71.3612437,47.7823559 C71.8341286,47.6109018 71.9595879,47.2388786 72.0351852,46.7940683 C72.4244306,44.5069346 72.0979148,42.279648 71.4641846,40.0847113 C71.1215843,38.8942372 71.0540293,37.6018611 70.238544,36.5747536 C70.170989,36.4890265 70.1404284,36.3855071 70.2465863,36.2949275 C70.373654,36.1897905 70.4975048,36.2237579 70.5988373,36.3256599 C70.910877,36.6346008 71.0910237,37.0341214 71.1955731,37.4417294 C72.0191007,40.6637735 73.0211664,43.8647902 72.4099546,47.3035783 C72.9584368,47.2890209 73.286561,46.9849323 73.6018177,46.6873138 C74.2033788,46.1195741 74.7052159,45.4628723 75.1266304,44.7527933 C75.4756646,44.1624088 75.6558112,43.5105595 75.4740561,42.8328303 C74.8065484,40.3435101 74.1326069,37.8558073 73.4168457,35.379427 C73.169144,34.5173038 72.9970396,34.5189213 72.1365177,34.8472721 C71.433624,35.1141583 70.8449305,35.5233838 70.2353271,35.9504017 C69.4841799,36.4793216 68.6574354,36.8901646 67.7341838,37.1279359 C66.9412169,37.3317399 66.0983879,37.0891161 65.3166801,37.7086155 C64.6411301,38.2440054 63.6471066,38.3329675 62.7672833,38.5335365 C60.6409094,39.0155491 58.4711073,39.1562709 56.3125643,39.3794848 C52.1338054,39.8113552 47.9437872,39.6075512 43.7585945,39.5816713 C40.8923325,39.5638789 38.4072738,38.4170771 36.0782349,36.8723722 C35.5603133,36.5294638 35.2273637,36.5537262 34.6788815,36.8659022 C33.2859618,37.6584733 32.9079755,39.0834838 32.3305412,40.3710074 C31.7852758,41.5857439 31.4491093,42.8959125 31.2303598,44.206081 C30.9665736,45.7847533 31.2448359,46.2861758 32.6232795,46.7843633 C34.2912445,47.3876879 35.9206066,48.0961494 37.5966139,48.6849165 C37.99551,48.8256383 38.5456007,48.6493317 38.7820432,49.0245898 C39.0442209,49.4402853 38.486088,49.7233464 38.3670625,50.1163969 C37.3424784,53.5131302 37.2009346,57.0392628 36.7119651,60.5168707 C35.975294,65.7591624 36.0653673,71.0435089 35.7420684,76.3052104 C35.7066825,76.8842726 35.6584289,77.4811271 35.8675277,78.0456319 C36.0090715,78.4225075 35.7485022,78.5794042 35.5233189,78.7589458 C34.812383,79.3299205 34.019416,79.7585559 33.1492434,80.0238246 C28.965659,81.2967908 24.7434719,82.2397887 20.3202281,81.6574916 C18.0667865,81.359873 15.8439055,80.9425601 13.9153713,79.6841513 C11.6747973,78.223556 10.0936887,76.182281 9.22673292,73.6185562 C8.99672424,72.9392095 8.78280009,72.2517754 8.58817737,71.5594888 C8.41928988,70.9561643 8.05095432,70.6973656 7.42848329,70.711923 C6.78188548,70.7280979 6.71272204,71.2279029 6.68537835,71.6533033 C6.61782335,72.6626184 6.5116655,73.6929608 6.64034168,74.6861009 C6.86391655,76.3909375 6.78027703,78.0909216 6.7947531,79.7925233 C6.82048834,82.9789826 7.8965429,85.7529814 9.83633632,88.2423016 C11.7069663,90.6442773 14.092301,92.1954522 16.9601714,93.2096197 C19.3036863,94.0393931 21.6262914,94.3256892 24.0598796,94.065273 C25.3209062,93.9310211 26.4500397,93.4053362 27.5727394,92.8634764 C27.6869395,92.8084816 27.7850551,92.7098146 27.8751284,92.6160001 C28.0810103,92.4057261 28.0488413,91.715057 28.6375348,92.2747093 C28.7227827,92.3555839 29.0283887,92.0773753 29.2069269,91.915626 C29.3902904,91.7474069 29.456237,91.4336134 29.7570175,91.409351 C30.0143699,91.6422699 29.6009977,91.7684343 29.7135893,92.0223805 C31.5536587,91.310684 33.347083,90.505173 35.2096707,89.9196409 C39.1326858,88.6871119 42.5812074,86.4404155 46.317642,84.8229235 C49.3817436,83.49658 52.516617,82.3513957 55.9152766,82.2058214 C56.5377477,82.1799415 57.0411932,82.4662376 57.5993262,82.6053419 C60.433419,83.3186559 63.2240837,84.203424 65.7123593,85.7545989 C68.6140072,87.562955 71.8872076,88.5269802 74.8789288,90.1153574 C77.2192268,91.3575913 79.4276318,92.8473015 81.8708707,93.8922013 C82.113747,93.9973383 82.3453642,94.1332076 82.5946743,94.2092298 C82.8182491,94.2771644 83.1511987,94.2496671 83.0305648,94.6022803 C82.8986717,94.9904784 82.654187,94.7155048 82.4611727,94.6136028 C80.4280891,93.5282656 78.3210166,92.5787978 76.3570964,91.3608263 C74.4076523,90.1509422 72.2909291,89.3049939 70.1918989,88.4202258 C67.9770601,87.4853154 65.8088665,86.4695304 63.7178785,85.2628813 C61.781302,84.1451943 59.593807,83.6437718 57.4449147,83.0647096 C55.9506626,82.6619541 54.4982302,82.8220858 53.0457978,83.1374968 C48.7094105,84.0740247 44.7091897,85.8969382 40.8698142,88.0611425 C40.3631517,88.3458211 39.8468386,88.476838 39.3498268,88.7065219 C38.7241389,88.9960529 38.0920172,89.279114 37.4422024,89.5023279 C33.8794807,90.7186819 30.3875308,92.1210475 26.9502684,93.6528125 C24.2271587,94.867549 21.4300602,94.9581286 18.641004,94.1704099 C16.3360919,93.5185607 14.0681742,92.7567219 12.1299892,91.1537873 C9.93766881,89.3421962 8.31313203,87.1796094 7.27568033,84.5625073 C7.00063499,83.8653682 6.71754739,83.5224599 5.97122554,83.808756 C5.89884519,83.8362533 5.81520568,83.8362533 5.73639151,83.8443408 C4.67642148,83.9527128 4.4834072,83.802286 4.34668876,82.7557687 C4.31612817,82.5179973 4.28556758,82.2786085 4.27913377,82.0392197 C4.24374782,80.6643515 4.4431959,80.4346676 5.78303663,80.4427551 C6.225361,80.44599 6.37977242,80.3554105 6.34921183,79.8733979 C6.29774135,79.0242145 6.31221742,78.1685613 6.33634421,77.316143 C6.35082028,76.8454528 6.21571029,76.6659112 5.71226473,76.6594412 C4.40298459,76.6416488 3.93009963,77.2417383 4.28556758,78.5357319 C4.35473102,78.7880607 4.50592554,78.8834927 4.73915111,78.8931977 C5.00454574,78.9045201 5.26833191,78.9126076 5.53372653,78.9174601 C5.70583092,78.9190776 5.8715015,78.9578974 5.88436912,79.1552314 C5.89884519,79.3574179 5.73799997,79.3930027 5.56589558,79.4221176 C4.16171675,79.6518015 3.78533892,79.3088931 3.87219535,77.8709427 C3.87541225,77.8175655 3.87862916,77.7641882 3.88023761,77.710811 C3.97031093,76.1014064 3.97031093,76.093319 5.54176879,76.2162484 C6.13367922,76.2615382 6.43124289,76.1240513 6.25270469,75.4382347 C6.01947911,74.5502316 6.11598625,73.6266436 6.16745672,72.7321705 C6.2961329,70.5129715 5.32784464,68.6480032 4.42711138,66.7523025 C4.21479568,66.3042572 3.90597284,65.9015017 3.83841785,65.3822867 C4.53487768,66.2250001 5.02545562,67.1906428 5.47260534,68.1789305 C5.72513235,68.7369652 5.94066495,69.3111749 6.21088493,69.8611222 C6.29934981,70.0422813 6.225361,70.4223919 6.58726276,70.3593097 C6.92021238,70.30108 7.16952248,70.0778661 7.21455914,69.7204004 C7.34001842,68.7175553 7.48638757,67.7147102 7.55715947,66.7070127 C7.64079899,65.4906587 7.55715947,64.2775397 7.31428318,63.0725081 C7.66010042,63.6159854 7.75660755,64.2273974 7.78395124,64.8355744 C7.85311469,66.352782 7.90780206,67.8699895 7.67296803,69.3823445 C7.64079899,69.5958535 7.49282138,69.8886195 7.77590898,70.0309588 C8.08955717,70.1878556 8.1120755,69.8061274 8.27613763,69.702608 C9.64814741,68.8372497 9.69961788,67.1696154 10.6148272,65.9144416 C10.6309117,66.7118652 10.301179,67.365332 9.95053643,67.871607 C8.27292073,70.3026975 9.08840602,72.6060062 10.2111057,74.87373 C11.8452932,78.1717962 14.5458845,80.048087 18.1134316,80.8261007 C22.5302416,81.7901259 26.8537612,81.4666275 31.1435034,80.1807213 C32.3562764,79.8167856 33.6301706,79.6162166 34.694966,78.8495254 C35.0986875,78.5583768 35.4782822,78.4661798 35.3656906,77.6639037 C35.2418398,76.7985455 35.384992,75.8183453 35.434854,74.8899049 C35.5490541,72.7887828 35.6712965,70.6876606 35.7082909,68.584921 C35.7678036,65.2480349 36.3034182,61.9596736 36.6058073,58.6486674 C36.8760272,55.7032144 37.1945008,52.7690839 37.9762086,49.9077405 C38.1081017,49.4241103 37.9697748,49.2251588 37.4872391,49.0569396 C35.7388515,48.4422927 34.019416,47.7451536 32.2758538,47.1159492 C29.1940593,46.0031147 26.3776594,44.4373824 24.100091,42.0515816 C22.6733938,40.557019 21.4075419,38.9071771 19.9116813,37.4708442 C19.7781797,37.3430623 19.6446782,37.213663 19.5079598,37.0874986 C18.0635696,35.7627726 17.4266225,35.678663 15.6734096,36.5731361 C15.4498347,36.6863606 15.2680796,36.7801751 15.3163332,37.1004385 C15.3774544,37.5177515 15.3790628,37.9431519 15.4080149,38.3847272 C16.6915599,38.2520929 16.2267171,37.1991055 16.418123,36.3499222 C16.8250614,37.0017715 16.9456953,37.5711287 16.6835176,38.1000486 C16.4309906,38.6095586 15.8712492,38.8392425 15.3565445,39.0268715 C15.0686315,39.1320085 15.0461132,38.82792 15.0252033,38.6160286 C14.984992,38.1938631 14.93513,37.7716977 14.9142201,37.3479148 C14.8933102,36.9500118 14.700296,36.901487 14.39469,37.0583837 C13.6387175,37.4401119 12.9342154,37.9091846 12.1557245,38.2601803 C11.6249352,38.4979517 12.0463497,39.0171666 12.0688681,39.4085997 C12.0785188,39.5638789 11.9980962,39.8825248 12.257057,39.8485575 C12.5835728,39.8048852 12.9390407,39.7207756 13.1803086,39.4344795 C13.3282862,39.2565554 13.2816411,39.1045112 13.1384888,38.9411445 C12.9889028,38.7696903 12.779804,38.6144111 12.8570097,38.2068031 C13.3250693,38.3911972 13.6145907,38.6855807 13.7303992,39.1239211 C13.8622923,39.6221086 13.4907399,39.8356176 13.1336635,40.0361866 C12.9728182,40.1267661 12.8071476,40.2092582 12.6479109,40.3030728 C12.4098599,40.4437946 12.3406965,40.9274247 11.9980962,40.7786154 C11.631369,40.6184837 11.7696959,40.1704384 11.7069663,39.843705 C11.6973156,39.7919453 11.7053578,39.7353331 11.6940987,39.6835733 C11.6185014,39.3455175 11.7391353,38.8667398 11.2533828,38.7810128 C10.7997992,38.7017556 9.97948857,39.4085997 10.0068323,39.8259126 C10.0502605,40.4971718 9.94731953,41.0390316 9.19617232,41.2590106 C8.9307777,41.3366502 8.84713818,41.6423562 8.69916058,41.8607176 C8.59300273,42.0176143 8.4691519,42.190686 8.26648692,42.1631886 C8.00913456,42.1276038 7.97857396,41.87851 7.9303204,41.674706 C7.8997598,41.5469241 7.90136826,41.4110548 7.88367528,41.2784205 C7.82737945,40.8788999 7.94479647,40.3515975 7.51694817,40.155881 C6.74810799,39.8048852 6.00821995,40.0378041 5.53694343,40.6459811 C5.31819393,40.9274247 5.13000501,41.2428356 4.66194541,41.5275142 C4.87908646,40.8902224 5.2618981,40.563489 5.53855189,40.1704384 C5.62862521,40.0426565 5.89401984,39.7693004 5.7235239,39.7693004 C5.20077691,39.7725354 5.72513235,38.7308705 4.88069491,39.0656914 C3.96548558,39.4263921 2.96502827,39.5703489 1.89058216,39.8356176 C2.11094012,39.2533204 2.56130676,39.2840528 2.89747328,39.2145006 C3.67757262,39.0527514 4.44480435,38.8618874 5.1943431,38.5933837 C5.5112082,38.4801592 5.8312902,38.3103226 5.77338592,37.9366819 C5.70904783,37.5274564 5.30050095,37.6762657 5.0495824,37.6681782 C3.86736999,37.6325934 2.79935769,37.0777936 1.63966361,36.9483943 C1.25041816,36.9063395 0.865998075,36.8270824 0.484794889,36.7090055 C2.24765857,36.3774196 3.87058689,37.5387789 5.70904783,37.2961551 C4.62012565,36.5100539 3.09692136,36.7057705 2.35542487,35.4570666 C3.3381892,36.1509707 4.53648613,36.2916925 5.59484772,36.7753226 C5.93423114,36.9289844 6.09507637,36.8675197 6.37173016,36.5650487 C6.85587429,36.0345113 7.15665486,35.2904649 7.91906123,35.0446062 C7.48477912,35.9859865 6.60978109,36.6507757 6.33473575,37.710233 C6.19962577,38.2375354 5.78303663,38.7939527 6.07094958,39.2759653 C6.32830195,39.7078357 6.95720678,39.6641634 7.46708615,39.6318136 C7.54590031,39.6269611 7.62310601,39.6091687 7.70192018,39.5962287 C8.84231283,39.3891898 9.87011382,38.8618874 10.9156078,38.4073721 C12.8505759,37.5695112 14.6134395,36.3806546 16.67065,35.7579201 C17.8785976,35.3907495 18.6940829,35.6269033 19.5015259,36.4841741 C19.8393009,36.8432573 20.156166,37.2799802 20.6982144,37.4449643 C20.511634,33.9172142 22.1200862,31.4909762 24.9606129,29.807167 C22.7988531,28.2349647 20.3716986,28.1540901 17.9718878,29.087383 C15.472353,30.0611132 12.9084801,30.9701437 10.8802218,32.8852543 C10.0969056,33.6260656 9.10127364,34.1145482 8.33725882,34.8941794 C8.23110097,35.0009339 8.09920788,35.1173933 7.91584433,35.0478411 C8.28257144,34.2665925 9.0353271,33.8945693 9.66262348,33.3915293 C9.7864743,33.2928623 9.94892798,33.2394851 10.0534774,33.1262606 C12.2200626,30.8180995 15.1233189,29.7812871 17.9316765,28.6474252 C19.9969292,27.8144168 22.1490384,27.7869194 24.2110742,28.9369562 C25.4592331,29.6324778 26.8055077,30.1371353 28.0987033,30.7453123 C29.6926795,31.4925937 31.0196526,32.6620404 32.3385834,33.8120772 C32.9996573,34.3895219 33.6735988,34.9394692 34.4794334,35.478094 C34.2462078,34.7825725 34.0145907,34.1792479 33.8424863,33.5565135 C32.9449699,30.3296169 32.603978,27.0347856 32.7053105,23.6898121 C32.739088,22.6238848 32.689226,21.5644276 32.5299892,20.5098228 C32.4511751,19.9954603 32.283896,19.7269566 31.646949,19.8628259 C30.9376215,20.0132527 30.2009504,20.1475045 29.4530201,19.9339956 C27.5051844,19.3759608 26.575499,17.929923 26.2666761,16.0730421 C25.9594618,14.2242487 26.3664002,12.5210296 27.8172241,11.1963036 C27.9330327,11.0895491 28.0536666,10.9876472 28.2193372,10.8404554 C28.0102384,10.7304659 27.8429594,10.6431213 27.6676381,10.5509243 C27.720717,10.4862246 27.752886,10.415055 27.7786213,10.4166725 C29.3983327,10.5250444 31.0276948,10.198311 32.6425809,10.520192 C32.7986008,10.5509243 32.9867897,10.510487 33.112249,10.5848916 C34.2301233,11.2561508 34.9137155,10.5444543 35.6777303,9.8618727 C39.4881537,6.45705197 43.4819407,3.31588244 48.2847791,1.39915438 C48.9217262,1.14520813 49.5618902,0.894496864 50.2020542,0.645403091 C50.681373,0.459391508 51.1526495,0.58070341 51.5981908,0.744070105 C53.7454745,1.53178873 55.7576483,2.52816382 57.5237289,4.05669379 C59.2656827,5.56257887 61.311634,6.6737959 63.1195343,8.11174632 C64.309789,9.05797916 65.1992631,10.3018305 66.3927347,11.2399759 C67.5315189,12.1328315 68.6349171,12.9674574 70.1902904,13.0871518 C72.041619,13.2294911 73.8157418,13.8651655 75.5367857,14.5331897 C76.7479503,15.0022624 78.0636642,16.3091959 77.9333796,17.8830157 C77.8191795,19.2530314 76.5436769,21.0338902 75.3083855,21.4285582 C74.8435428,21.5773675 74.737385,21.3622411 74.7309512,20.9724255 C74.8226329,20.9190482 74.9110978,20.8317037 75.0076049,20.8203812 C76.2991921,20.6812769 76.910404,19.7398965 77.3205593,18.6933792 C77.7387569,17.620982 77.4878383,16.6504868 76.640184,15.7786586 C75.6493774,14.7628736 74.3352719,14.5315722 73.1064144,14.0980843 C69.8139126,12.9367251 66.6066588,13.2116987 63.4782192,14.7499336 C62.6000042,15.181804 61.6654935,15.4955974 60.7502841,15.8498282 C60.5572699,15.9242328 60.2725738,16.1895015 60.1535483,15.8320358 C60.0280891,15.4583951 60.2886583,15.3435532 60.6489516,15.3273783 C60.9046955,15.3160558 61.1572225,15.1947439 61.4065326,15.1073994 C63.5892024,14.3455606 65.6335452,13.1728789 68.0108376,12.8946703 C66.7948477,12.3948652 65.9713202,11.4373099 65.0931052,10.5670992 C64.5478399,10.0268569 64.0154422,9.4752921 63.4428332,8.96254713 C61.5979385,7.30947027 59.3927504,6.14164102 57.5108613,4.55973381 C55.8750653,3.18486558 54.067165,2.19981294 52.1321969,1.38944943 C51.5724555,1.15653057 50.9934127,0.87508696 50.3709417,1.069186 C49.6664396,1.28916492 48.9796305,1.57222603 48.2912129,1.8423472 C45.104869,3.09266854 42.2498662,4.89131968 39.6087876,7.06199399 C37.9971185,8.38671996 36.295376,9.60307397 34.8316844,11.128369 C36.0010292,11.5618568 37.1494641,11.9678473 38.2818145,12.4126576 C39.4865453,12.8849653 40.6800168,13.3880053 41.8734884,13.8894279 C42.0697196,13.97192 42.2756015,14.1271992 42.1887451,14.373058 C42.1179732,14.5687745 41.9474772,14.4878999 41.7962827,14.3957029 C39.7648075,13.1631739 37.5065405,12.4692699 35.3061778,11.6378789 C33.6559058,11.0151445 31.9702479,10.6690012 30.1864743,10.7514933 C29.4256764,10.7854606 29.136155,11.0636693 29.1345465,11.7802182 C29.1265043,14.1336692 29.3436453,16.4483003 30.046539,18.7144066 C30.2926322,19.5069777 30.7236974,19.6347596 31.4137234,19.4875678 C32.5283808,19.2530314 32.5332061,19.2595014 32.8050346,20.3933633 C32.859722,20.6262822 32.891891,20.8640535 32.927277,21.1002073 C32.9690967,21.3881209 32.9530122,21.7100018 33.2730942,21.8539586 C33.7138101,22.0545276 33.9663371,22.4427257 34.1915204,22.8244539 C35.3544314,24.7897067 36.5028663,26.763047 37.4615039,28.8431417 C38.7611333,31.6591953 41.0419186,33.2346326 44.0030792,33.8913343 C45.6388752,34.25527 47.3020148,34.3151173 48.9699798,34.4008443 C52.7820116,34.5933259 56.5860012,34.662878 60.3819486,34.1517506 C62.0788657,33.9236842 63.2771626,32.9483365 64.071738,31.5427359 C65.0464601,29.8168719 65.6062015,27.8936739 65.7686552,25.9268036 C65.9729286,23.4552757 67.5218681,22.1143748 69.4166249,20.9724255 C69.46327,20.9433106 69.5597771,20.9999228 69.7399238,21.0403601 C69.2686473,21.6242748 68.7330327,22.0351177 68.1781167,22.4087584 C66.987862,23.2126519 66.4200783,24.3723937 66.2704923,25.7521144 C66.0742611,27.5637055 65.6110269,29.3057444 64.9065248,30.9733787 C63.9623633,33.2039002 62.321742,34.459074 59.8575931,34.77125 C57.8454193,35.0268137 55.8428963,34.975054 53.8339394,35.0219613 C50.4352798,35.1012184 47.0462709,35.0591636 43.7167747,34.3296747 C40.858555,33.7037053 38.5697275,32.1395905 37.2910079,29.4529362 C36.3983169,27.5766454 35.317437,25.8135791 34.3957939,23.9599333 C34.1609598,23.4892431 33.8440947,23.0557552 33.5304465,22.6303548 C33.4017704,22.4572832 33.1074236,22.190397 33.0656038,22.6772621 C33.0109165,23.3177889 32.8565051,23.9308184 33.1492434,24.616635 C33.6382129,25.7699068 34.2783768,26.8406866 34.7737801,27.9891059 C35.3608652,29.3477992 35.8884376,30.7517823 36.9162386,31.8743218 C38.4410513,33.5419561 39.9127851,35.28076 42.3077705,35.6964555 C42.8015654,35.7821825 43.3066194,35.8064449 43.8036311,35.8743796 C46.5910789,36.2528727 49.3817436,36.4210919 52.1981435,36.1897905 C53.7454745,36.0620086 55.3056732,35.7708601 56.862655,36.1525882 C58.8828711,36.6459233 60.7647602,36.1234733 62.538883,35.2241478 C63.7355715,34.6175883 64.711902,33.6875303 65.2298237,32.3967717 C65.7348777,31.1383629 66.1884612,29.8556917 66.4249037,28.5131733 C66.6742138,27.0962503 67.0361156,25.7068247 67.3803243,24.310929 C67.5540372,23.6057025 67.8998544,23.0217879 68.5287593,22.6610872 C68.7668102,22.5268353 69.2059177,22.6125624 69.3313769,22.4378733 C70.3141413,21.0791799 71.8019596,21.1244697 73.2061384,20.9805129 C74.6151426,20.8365561 75.1427149,20.1280946 74.8145907,18.7661663 C74.499334,17.4511453 74.2307225,16.1264193 73.9412011,14.8049283 C74.5733228,16.0180474 74.5813651,17.3783582 74.9625683,18.640002 C75.2199206,19.4924203 75.207053,20.2380841 74.7422103,20.9821304 M78.1119178,29.1698751 C79.4292402,29.5370458 79.6898095,30.6401754 80.1063986,31.5896432 C80.6387963,32.8027622 80.9090163,34.0692585 80.5197708,35.3972194 C80.4699088,35.5638211 80.5213793,35.8339423 80.2479424,35.7789475 C80.0710127,35.7433627 80.0967479,35.5185313 80.1369592,35.3681046 C80.6227118,33.5419561 79.9375111,31.9665188 79.0914652,30.4299014 C78.6845268,29.6939425 77.9012106,29.4270563 77.2867818,29.8524567 C76.8315898,30.1662502 76.4519951,30.5867981 76.0305806,30.9507338 C75.8102226,31.1415979 75.8504339,31.2839372 76.0547074,31.4586263 C76.6015811,31.930934 76.8637589,32.5763133 77.0439055,33.24919 C77.4894468,34.9265292 78.3998308,36.4405018 78.6732676,38.3038526 C80.4200468,36.2771351 82.3148036,34.6175883 84.3800563,33.1764029 C85.2663135,32.5585209 85.9772494,31.6980151 87.1900224,31.4828887 C88.6649731,31.2192375 90.065935,31.1836527 91.4894152,31.6397854 C92.8340813,32.0700383 94.1803559,32.4922037 95.5700586,32.7558549 C95.8177603,32.8027622 95.9705632,32.7542374 96.0381182,32.4792638 C96.1539268,32.0085736 96.2086142,31.5395009 96.1442761,31.0558708 C95.8241941,28.6603651 94.2913391,27.3259342 92.1858751,26.5236581 C89.9903377,25.6857973 87.7143778,25.5014032 85.3949896,25.8038742 C82.6670546,26.1613399 80.3508834,27.4165137 78.1119178,29.1698751 M32.9803559,25.1859922 C33.027001,27.5265032 33.3181309,29.8767191 33.8408778,32.1864977 C34.1143147,33.3931468 34.3443234,34.6839054 35.2788342,35.586466 C37.6915125,37.9156545 40.6172872,39.1287735 43.9483918,39.133626 C47.5223727,39.140096 51.101179,39.3439 54.6751599,39.034959 C57.6009346,38.7826302 60.5299262,38.5836787 63.399405,37.8930096 C65.8024327,37.3139475 66.735335,36.2172879 67.0119888,33.867072 C67.2468228,31.8840267 67.5395611,29.9123039 67.9609756,27.9599911 C68.3051844,26.3602914 68.5593198,24.7444169 69.0241625,23.0509027 C68.3228774,23.295144 68.0767842,23.7173095 67.9078967,24.2526993 C67.1647917,26.6158552 66.8398844,29.0776781 66.1305569,31.4570088 C65.0142911,35.1982679 60.8290983,37.2201329 57.5060359,36.7640002 C56.2707446,36.5941635 55.0402786,36.4243269 53.7889028,36.5553437 C50.1312823,36.9403068 46.4881379,36.799585 42.8594697,36.2366978 C41.9201335,36.0911235 40.9212847,35.994074 40.1331431,35.4376567 C38.3911893,34.2067453 36.8599427,32.736445 35.7597614,30.8763292 C34.6740561,29.0453282 34.0853626,26.9700859 32.9803559,25.1859922 M27.3025194,42.5675616 C27.3250377,43.1611812 27.2253137,43.8437628 27.6692465,44.2481358 C28.4541712,44.9614498 29.3902904,45.4806648 30.4020069,45.833278 C30.6722269,45.9270926 30.8202045,45.8235731 30.7896439,45.5324245 C30.6046719,43.798473 31.2689627,42.2198008 31.796535,40.6508335 C32.3337581,39.0559864 32.9031502,37.3964396 34.5212531,36.4793216 C34.8365098,36.3013975 34.79469,36.1655281 34.5035602,35.984369 C33.5787001,35.4069244 32.7535641,34.6968454 31.9589887,33.9511815 C31.7016363,33.7101752 31.4491093,33.7506125 31.1225935,33.7344376 C30.061015,33.6842954 29.7151978,34.3232047 29.4514116,35.1643006 C29.2439213,35.8226198 28.9302731,36.4485892 28.7372588,37.1101435 C28.2112949,38.9168821 27.4810576,40.6718609 27.3025194,42.5675616 M31.1660217,33.3947643 C30.9488807,33.1602279 30.8909764,33.0745009 30.8121622,33.0178886 C30.1912997,32.5666084 29.5816963,32.0926832 28.9350984,31.6786052 C27.7561029,30.918384 27.1175474,31.1302754 26.4950764,32.4064767 C25.5911262,34.2568875 25.1857962,36.2836051 24.4507335,38.1938631 C23.4824453,40.7090633 24.1016994,42.3055279 26.4516482,43.6156964 C26.5883666,43.6917186 26.7411696,43.8211179 26.8859303,43.7078935 C27.0290825,43.5962865 26.9390092,43.4118924 26.9197078,43.2582307 C26.8055077,42.3653751 26.9567022,41.4967819 27.2381813,40.6637735 C27.8413509,38.8764448 28.2338133,37.0244164 28.9897858,35.2823775 C29.4095919,34.3167347 29.506099,33.1214081 31.1660217,33.3947643 M27.1609756,30.7873671 C26.7331273,30.5867981 26.3068875,30.3797591 25.8742138,30.1872776 C25.7374954,30.1274304 25.6120361,30.0417033 25.4318894,30.099933 C23.3859382,30.7663397 21.3351615,33.7069402 21.0971106,35.6544007 C20.8172399,37.9431519 22.0026692,39.2371455 23.6111215,40.6767134 C23.5194397,39.0301065 24.2014234,37.7425829 24.6566154,36.401682 C25.3144724,34.462309 25.6490305,32.3660394 27.1609756,30.7873671 M75.9775017,42.7373983 C76.8959279,41.3415026 77.5714779,40.0280991 78.0475797,38.6127936 C78.1392615,38.3410549 78.2293348,38.0515239 78.1537376,37.7522878 C77.6840695,35.9261393 76.8959279,34.2115978 76.2814991,32.437209 C76.0724003,31.829032 75.5432196,31.6705178 74.9850866,31.9891637 C73.9637194,32.5714608 73.034034,33.2831573 72.1558191,34.1873354 C73.3685921,34.0126462 73.4634908,34.0498486 73.8076996,35.182093 C74.0988294,36.1461182 74.3031029,37.1376409 74.5861905,38.1049011 C75.0204726,39.5962287 75.2826503,41.1425511 75.9775017,42.7373983 M28.8578927,13.0256871 C28.8578927,12.6019042 28.8675435,12.1765038 28.8562843,11.7511034 C28.8434167,11.2593858 28.6359263,11.1299865 28.2145118,11.42437 C27.2349644,12.1101866 26.8360682,13.1275891 26.607668,14.2452761 C26.1910789,16.2736111 27.2896518,18.8551284 29.0959437,19.3743433 C29.321127,19.4374255 29.5672202,19.6072622 29.7618429,19.4228681 C29.9371642,19.2578839 29.7698852,19.0136426 29.7071555,18.8292485 C29.0653831,16.9464878 29.0042619,14.9796175 28.8578927,13.0256871 M99.3547468,81.3906054 C99.2839749,81.2272387 99.5718878,80.7808109 99.1617325,80.7500785 C98.8336083,80.7241987 98.252957,80.5818594 98.1419738,81.070342 C97.9521764,81.9179078 97.8379763,82.7945885 97.8122411,83.6615642 C97.7897227,84.3570858 98.4684896,84.114462 98.8448674,84.216364 C99.2694988,84.3295884 99.1971185,83.9349204 99.2148114,83.6955315 C99.2694988,82.9579552 99.3064932,82.2187613 99.3547468,81.3906054 M4.73110885,82.1314167 C4.85978503,82.48403 4.51075089,83.0808846 5.12196275,83.3138034 C6.16263136,83.7084715 6.76258406,83.2151364 6.59369657,82.1459742 C6.55991907,81.9373177 6.48914717,81.7286612 6.49558098,81.5216222 C6.50684015,81.1172492 6.3331273,80.9910849 5.94066495,80.9538825 C4.84691742,80.850363 4.73593421,80.9344726 4.73110885,82.1314167 M88.9834466,32.7607074 C89.087996,32.9790688 88.650497,33.4788739 89.2890526,33.561366 C90.0804111,33.663268 90.521127,33.3025672 90.6465863,32.6749803 C90.8074315,31.8807917 90.3940593,31.7659498 89.7731967,31.6899277 C88.9078494,31.5831732 89.0107903,32.1719403 88.9834466,32.7607074 M98.2770838,77.2789406 C98.2449147,77.6072915 98.2384809,77.7399259 98.217571,77.8709427 C98.1484076,78.2769332 98.3542895,78.4807372 98.725842,78.5179395 C99.2228537,78.5680818 99.0845268,78.1604738 99.1054367,77.908145 C99.1665579,77.1948311 99.2035523,76.4782821 99.2389382,75.7633506 C99.2501974,75.5563116 99.4367779,75.2538406 99.0234056,75.2198733 C98.6631123,75.1891409 98.4105853,75.2991304 98.3896754,75.7277658 C98.3607233,76.3100629 98.3060359,76.89236 98.2770838,77.2789406 M94.0500712,34.0482311 C94.547083,34.0951383 94.7722663,33.9576515 94.7593987,33.5306336 C94.7336635,32.6135156 93.9358711,32.9273091 93.4742453,32.7283576 C93.1107351,32.5714608 93.0013604,32.8658444 93.0287041,33.1618454 C93.0914337,33.8460446 93.6769103,33.8978043 94.0500712,34.0482311 M86.2619454,32.5035262 C85.9836832,32.4630889 84.9993104,33.1618454 85.0057442,33.3979993 C85.0137865,33.6390056 84.9349723,33.962504 85.300091,34.0482311 C85.4271587,34.0789634 86.6495824,33.2993323 86.6334979,33.2055177 C86.5836359,32.9208391 86.5225147,32.6361605 86.2619454,32.5035262 M8.30026442,41.3560601 C8.72007045,41.066529 9.04176091,40.8481676 9.36023445,40.6233362 C9.64332205,40.4227672 9.67227419,40.142941 9.54038111,39.85341 C9.39401195,39.5331466 9.14952721,39.7175406 8.93238615,39.7693004 C8.03004444,39.9876618 8.27292073,40.6670085 8.30026442,41.3560601" id="Fill-3" fill="#1D1D1B"></path>
                            <path d="M74.7422103,20.9821304 C73.8816884,21.677652 72.8088507,21.4560556 71.838954,21.5983949 C70.4090399,21.8070514 69.6128561,22.5381578 69.260605,23.9081735 C68.6413509,26.3085317 68.1942012,28.7412397 67.7985219,31.1852702 C67.6312429,32.2091426 67.4784399,33.2362501 67.4189272,34.2762974 C67.3803243,34.978289 67.1101044,35.6204333 66.7626787,36.2286103 C66.6870814,36.3612447 66.5310615,36.5100539 66.6340025,36.6604807 C66.7578533,36.8432573 66.9685606,36.7478253 67.1454903,36.7154754 C68.6542185,36.4421193 69.9844085,35.7676251 70.9929081,34.6305282 C72.1204331,33.3591795 73.5358711,32.4727938 74.8355006,31.4327465 C75.2086615,31.1351279 75.5834309,30.8439794 75.9276396,30.514011 C78.190732,28.3449542 80.6580977,26.4929258 83.7447176,25.6938847 C86.950363,24.8624938 90.1077548,25.0792377 93.1445126,26.4346961 C95.5427149,27.5054758 97.0144488,30.1856601 96.5367384,32.440444 C96.432189,32.9337791 96.3405073,33.4028517 95.6488728,33.2783049 C95.2612358,33.2087527 95.2322837,33.5257811 95.2145907,33.7942848 C95.1792047,34.3442321 94.8140861,34.4946589 94.3540687,34.5464186 C93.3455692,34.6564081 92.4705711,33.8832469 92.5477768,32.8965767 C92.6153318,32.0441584 91.8995706,32.2916347 91.5103251,32.131503 C90.9988373,31.9228465 91.1645079,32.4323565 91.0808684,32.6539529 C90.9361077,33.0372985 91.0921275,33.5920983 90.6433694,33.7910498 C90.0369829,34.0627885 89.3533906,34.0595535 88.6939252,34.0627885 C88.4349644,34.064406 88.4027954,33.7894323 88.4253137,33.5662184 C88.4510489,33.3284471 88.5282546,33.0922933 88.5266462,32.8561394 C88.5250377,32.4986737 88.7389619,32.0021036 88.3963616,31.8160921 C88.0006823,31.6009656 87.5181466,31.8629993 87.1015575,32.0247485 C86.6785345,32.1897327 86.9117601,32.5342585 86.9970081,32.7752648 C87.2254083,33.4303491 87.2479266,33.9269192 86.3825793,34.0514661 C86.1606129,34.0838159 85.9515141,34.2504176 85.7456322,34.370112 C84.7178312,34.9669665 84.6679692,34.9443217 84.507124,33.6875303 C83.7559768,34.0870509 83.1351142,34.6143533 82.4981671,35.1141583 C79.6544235,37.3414448 77.6551174,40.2335206 76.1721244,43.4879146 C75.7523183,44.409885 75.3534222,45.2898007 74.7245174,46.1098692 C73.791615,47.3278407 72.5740167,47.9538101 71.1682294,48.3452431 C70.6567416,48.4875824 70.1549045,48.7415287 69.6385913,48.7690261 C68.6365256,48.8224033 68.53841,49.3545582 68.5142832,50.2231514 C68.4065169,54.1245422 68.5818382,58.0065231 69.2155684,61.8561541 C69.5115236,63.6628927 69.900769,65.4663963 70.4009977,67.2262277 C71.0443786,69.4874815 71.2888633,71.826375 71.8855991,74.0908638 C72.326315,75.7633506 72.8201099,77.4212799 73.2881695,79.0856792 C73.3412484,79.2765433 73.4329302,79.3849153 73.6307698,79.4738773 C77.0873337,81.0185822 80.5374638,82.5778445 83.9875939,84.1371069 C85.3740798,84.7630763 86.7058782,85.3825757 88.3320235,85.3502259 C90.5661637,85.3081711 91.9719509,84.2778287 93.0270956,82.4144778 C94.0179022,80.6675864 94.8542974,78.8867277 95.2033315,76.8858901 C95.3464838,76.0690566 95.7469884,75.3266278 96.1716198,74.6181662 C96.4547074,74.1442411 96.4048454,73.7657479 96.1217578,73.2982927 C95.3464838,72.0188565 94.3476349,70.9254319 93.3680875,69.8158324 C93.266755,69.7009905 93.1718563,69.5812961 93.1203858,69.4243993 C94.4521843,70.5242939 95.5555826,71.832845 96.5866005,73.2449155 C96.499744,71.1923181 96.0574197,69.2303003 95.3127063,67.1857904 C95.7469884,67.6257482 95.8161518,67.7325027 96.0236422,68.3730295 C96.4820511,69.79157 96.7474457,71.2570178 97.0289248,72.7176131 C97.0675277,72.9181821 96.9967558,73.1705109 97.2830603,73.2335931 C97.6272691,73.3096152 97.6706973,73.0055267 97.7495114,72.8017227 C98.5038755,70.8316174 99.0813099,68.8210748 99.0491409,66.6778979 C99.0475324,66.4999737 98.9880197,66.3042572 99.2518058,66.0066387 C99.3257947,67.4187092 99.2775411,68.6819705 98.992845,69.9387618 C98.7129743,71.1729082 98.1628837,72.3407375 98.1323231,73.6622285 C99.7053894,72.0609113 101.283281,70.4854741 102.484795,68.5493361 C102.475144,69.0329663 102.484795,69.0394362 102.16793,69.5149789 C101.296149,70.8251474 100.197576,71.9509219 99.1971185,73.154336 C99.0620085,73.3177026 98.8979464,73.4681294 98.8062646,73.654141 C98.6598954,73.953377 98.2545654,74.1879134 98.4154107,74.5631715 C98.5939489,74.978867 98.9815859,74.6683085 99.2711073,74.6828659 C99.6925218,74.7055108 99.8549754,74.8996099 99.7874205,75.2942779 C99.5895808,76.4524022 99.4705554,77.612144 99.5976231,78.7912957 C99.6523105,79.2911007 99.3113186,79.1762588 99.0137549,79.1293515 C98.7435349,79.0872967 98.3993262,78.8010006 98.2159626,79.0824443 C98.0229483,79.3816803 98.0213399,79.8361955 98.1757513,80.1645464 C98.352681,80.5398046 98.7499687,80.3214432 99.0378817,80.2696834 C99.6876964,80.1516065 99.9321812,80.4249626 99.8774938,81.0460796 C99.7938543,82.0003999 99.7198655,82.9563377 99.6088823,83.907423 C99.5011159,84.827776 99.3917412,84.8876232 98.4893995,84.6822017 C98.3607233,84.6530868 98.2272218,84.6352944 98.100154,84.5980921 C97.7945481,84.50913 97.6723057,84.6288244 97.6337029,84.9410004 C97.5967085,85.2483239 97.6015338,85.4084556 97.9939962,85.4666853 C99.33062,85.6640193 99.3000594,85.6818118 99.0587916,86.9709529 C98.9172478,87.7279392 98.9059886,88.5091878 98.7789209,89.2677916 C98.7194082,89.6171699 98.910814,90.2010845 98.352681,90.2366693 C97.7993735,90.2738716 97.4632069,89.8468537 97.2026377,89.3616061 C97.3264885,89.3082289 97.3522237,89.285584 97.3715252,89.2904365 C97.7495114,89.3745461 97.9795201,90.0183079 98.3510726,89.7692141 C98.6936729,89.5411477 98.5424784,88.9782605 98.5521291,88.5593301 C98.5682136,87.9204207 98.5280023,87.2831289 98.6872391,86.6506895 C98.7612279,86.3546884 98.8689942,85.9600204 98.3478557,85.9551679 C97.9570018,85.9503154 97.4615985,85.7723913 97.3586575,86.4339455 C97.1624264,87.7004418 96.8519951,88.9362057 96.3469411,90.1169749 C95.4783768,92.1469274 94.2897306,93.8760264 92.2421709,94.9063688 C90.9184147,95.5727755 89.5061936,95.6196828 88.1261416,95.4999884 C86.6495824,95.3722065 85.0845584,95.3883814 83.7897543,94.4308262 C83.46163,94.1882024 83.1431565,93.9310211 82.8874126,93.5864953 C82.956576,93.6026702 83.0402155,93.5978178 83.0932945,93.6350201 C85.4191164,95.3317692 88.0907556,95.2897144 90.7189666,94.9451886 C93.0480055,94.6378651 94.4843534,92.9750833 95.5587995,90.9516008 C96.8005246,88.6127073 97.1141728,86.0505999 97.45999,83.493345 C97.7816805,81.1188667 97.5693648,78.7104211 97.9103567,76.3343253 C97.9907793,75.7762905 97.8814045,75.1842885 97.8170664,74.6116963 C97.7848974,74.3221652 97.6690888,74.0277817 97.3313139,73.950142 C96.9501107,73.86118 96.94046,74.2251157 96.8005246,74.4256847 C96.0558112,75.488377 95.5861432,76.6626762 95.3770444,77.9453474 C95.0537455,79.9219226 93.8956598,81.5086823 92.9707998,83.2102839 C92.3306358,84.3878181 91.3736067,85.1318645 90.1640506,85.5362375 C88.7518295,86.0069277 87.2800957,85.8112111 85.8276633,85.7513639 C85.752066,85.7497464 85.6636012,85.725484 85.6056969,85.6801943 C83.3297369,83.8944831 80.5503314,83.1569067 77.988067,81.96805 C76.9055786,81.4666275 75.8359579,80.9393251 74.7470357,80.455695 C74.3207958,80.2680659 73.9540687,79.8297256 73.3653752,80.1920438 C73.1064144,80.350558 73.0372509,79.9801523 72.9745213,79.7439985 C71.956371,75.9153949 71.0025588,72.0722338 70.2401525,68.1789305 C69.8042619,65.9597314 69.1737486,63.7809696 68.8327567,61.5391257 C68.250497,57.7347844 68.0671335,53.9094157 68.150773,50.0646372 C68.1748998,48.9598901 68.1491645,48.9598901 67.0457663,48.8401957 C66.9669521,48.8304908 66.884921,48.8304908 66.8109322,48.8062284 C66.5841405,48.7350587 66.1546837,48.8693106 66.194895,48.5086098 C66.2367148,48.1479091 66.6291771,48.3128933 66.8624027,48.3614181 C68.4306437,48.683299 69.9039859,48.3096583 71.3612437,47.7823559 C71.8341286,47.6109018 71.9595879,47.2388786 72.0351852,46.7940683 C72.4244306,44.5069346 72.0979148,42.279648 71.4641846,40.0847113 C71.1215843,38.8942372 71.0540293,37.6018611 70.238544,36.5747536 C70.170989,36.4890265 70.1404284,36.3855071 70.2465863,36.2949275 C70.373654,36.1897905 70.4975048,36.2237579 70.5988373,36.3256599 C70.910877,36.6346008 71.0910237,37.0341214 71.1955731,37.4417294 C72.0191007,40.6637735 73.0211664,43.8647902 72.4099546,47.3035783 C72.9584368,47.2890209 73.286561,46.9849323 73.6018177,46.6873138 C74.2033788,46.1195741 74.7052159,45.4628723 75.1266304,44.7527933 C75.4756646,44.1624088 75.6558112,43.5105595 75.4740561,42.8328303 C74.8065484,40.3435101 74.1326069,37.8558073 73.4168457,35.379427 C73.169144,34.5173038 72.9970396,34.5189213 72.1365177,34.8472721 C71.433624,35.1141583 70.8449305,35.5233838 70.2353271,35.9504017 C69.4841799,36.4793216 68.6574354,36.8901646 67.7341838,37.1279359 C66.9412169,37.3317399 66.0983879,37.0891161 65.3166801,37.7086155 C64.6411301,38.2440054 63.6471066,38.3329675 62.7672833,38.5335365 C60.6409094,39.0155491 58.4711073,39.1562709 56.3125643,39.3794848 C52.1338054,39.8113552 47.9437872,39.6075512 43.7585945,39.5816713 C40.8923325,39.5638789 38.4072738,38.4170771 36.0782349,36.8723722 C35.5603133,36.5294638 35.2273637,36.5537262 34.6788815,36.8659022 C33.2859618,37.6584733 32.9079755,39.0834838 32.3305412,40.3710074 C31.7852758,41.5857439 31.4491093,42.8959125 31.2303598,44.206081 C30.9665736,45.7847533 31.2448359,46.2861758 32.6232795,46.7843633 C34.2912445,47.3876879 35.9206066,48.0961494 37.5966139,48.6849165 C37.99551,48.8256383 38.5456007,48.6493317 38.7820432,49.0245898 C39.0442209,49.4402853 38.486088,49.7233464 38.3670625,50.1163969 C37.3424784,53.5131302 37.2009346,57.0392628 36.7119651,60.5168707 C35.975294,65.7591624 36.0653673,71.0435089 35.7420684,76.3052104 C35.7066825,76.8842726 35.6584289,77.4811271 35.8675277,78.0456319 C36.0090715,78.4225075 35.7485022,78.5794042 35.5233189,78.7589458 C34.812383,79.3299205 34.019416,79.7585559 33.1492434,80.0238246 C28.965659,81.2967908 24.7434719,82.2397887 20.3202281,81.6574916 C18.0667865,81.359873 15.8439055,80.9425601 13.9153713,79.6841513 C11.6747973,78.223556 10.0936887,76.182281 9.22673292,73.6185562 C8.99672424,72.9392095 8.78280009,72.2517754 8.58817737,71.5594888 C8.41928988,70.9561643 8.05095432,70.6973656 7.42848329,70.711923 C6.78188548,70.7280979 6.71272204,71.2279029 6.68537835,71.6533033 C6.61782335,72.6626184 6.5116655,73.6929608 6.64034168,74.6861009 C6.86391655,76.3909375 6.78027703,78.0909216 6.7947531,79.7925233 C6.82048834,82.9789826 7.8965429,85.7529814 9.83633632,88.2423016 C11.7069663,90.6442773 14.092301,92.1954522 16.9601714,93.2096197 C19.3036863,94.0393931 21.6262914,94.3256892 24.0598796,94.065273 C25.3209062,93.9310211 26.4500397,93.4053362 27.5727394,92.8634764 C27.6869395,92.8084816 27.7850551,92.7098146 27.8751284,92.6160001 C28.0810103,92.4057261 28.0488413,91.715057 28.6375348,92.2747093 C28.7227827,92.3555839 29.0283887,92.0773753 29.2069269,91.915626 C29.3902904,91.7474069 29.456237,91.4336134 29.7570175,91.409351 C30.0143699,91.6422699 29.6009977,91.7684343 29.7135893,92.0223805 C31.5536587,91.310684 33.347083,90.505173 35.2096707,89.9196409 C39.1326858,88.6871119 42.5812074,86.4404155 46.317642,84.8229235 C49.3817436,83.49658 52.516617,82.3513957 55.9152766,82.2058214 C56.5377477,82.1799415 57.0411932,82.4662376 57.5993262,82.6053419 C60.433419,83.3186559 63.2240837,84.203424 65.7123593,85.7545989 C68.6140072,87.562955 71.8872076,88.5269802 74.8789288,90.1153574 C77.2192268,91.3575913 79.4276318,92.8473015 81.8708707,93.8922013 C82.113747,93.9973383 82.3453642,94.1332076 82.5946743,94.2092298 C82.8182491,94.2771644 83.1511987,94.2496671 83.0305648,94.6022803 C82.8986717,94.9904784 82.654187,94.7155048 82.4611727,94.6136028 C80.4280891,93.5282656 78.3210166,92.5787978 76.3570964,91.3608263 C74.4076523,90.1509422 72.2909291,89.3049939 70.1918989,88.4202258 C67.9770601,87.4853154 65.8088665,86.4695304 63.7178785,85.2628813 C61.781302,84.1451943 59.593807,83.6437718 57.4449147,83.0647096 C55.9506626,82.6619541 54.4982302,82.8220858 53.0457978,83.1374968 C48.7094105,84.0740247 44.7091897,85.8969382 40.8698142,88.0611425 C40.3631517,88.3458211 39.8468386,88.476838 39.3498268,88.7065219 C38.7241389,88.9960529 38.0920172,89.279114 37.4422024,89.5023279 C33.8794807,90.7186819 30.3875308,92.1210475 26.9502684,93.6528125 C24.2271587,94.867549 21.4300602,94.9581286 18.641004,94.1704099 C16.3360919,93.5185607 14.0681742,92.7567219 12.1299892,91.1537873 C9.93766881,89.3421962 8.31313203,87.1796094 7.27568033,84.5625073 C7.00063499,83.8653682 6.71754739,83.5224599 5.97122554,83.808756 C5.89884519,83.8362533 5.81520568,83.8362533 5.73639151,83.8443408 C4.67642148,83.9527128 4.4834072,83.802286 4.34668876,82.7557687 C4.31612817,82.5179973 4.28556758,82.2786085 4.27913377,82.0392197 C4.24374782,80.6643515 4.4431959,80.4346676 5.78303663,80.4427551 C6.225361,80.44599 6.37977242,80.3554105 6.34921183,79.8733979 C6.29774135,79.0242145 6.31221742,78.1685613 6.33634421,77.316143 C6.35082028,76.8454528 6.21571029,76.6659112 5.71226473,76.6594412 C4.40298459,76.6416488 3.93009963,77.2417383 4.28556758,78.5357319 C4.35473102,78.7880607 4.50592554,78.8834927 4.73915111,78.8931977 C5.00454574,78.9045201 5.26833191,78.9126076 5.53372653,78.9174601 C5.70583092,78.9190776 5.8715015,78.9578974 5.88436912,79.1552314 C5.89884519,79.3574179 5.73799997,79.3930027 5.56589558,79.4221176 C4.16171675,79.6518015 3.78533892,79.3088931 3.87219535,77.8709427 C3.87541225,77.8175655 3.87862916,77.7641882 3.88023761,77.710811 C3.97031093,76.1014064 3.97031093,76.093319 5.54176879,76.2162484 C6.13367922,76.2615382 6.43124289,76.1240513 6.25270469,75.4382347 C6.01947911,74.5502316 6.11598625,73.6266436 6.16745672,72.7321705 C6.2961329,70.5129715 5.32784464,68.6480032 4.42711138,66.7523025 C4.21479568,66.3042572 3.90597284,65.9015017 3.83841785,65.3822867 C4.53487768,66.2250001 5.02545562,67.1906428 5.47260534,68.1789305 C5.72513235,68.7369652 5.94066495,69.3111749 6.21088493,69.8611222 C6.29934981,70.0422813 6.225361,70.4223919 6.58726276,70.3593097 C6.92021238,70.30108 7.16952248,70.0778661 7.21455914,69.7204004 C7.34001842,68.7175553 7.48638757,67.7147102 7.55715947,66.7070127 C7.64079899,65.4906587 7.55715947,64.2775397 7.31428318,63.0725081 C7.66010042,63.6159854 7.75660755,64.2273974 7.78395124,64.8355744 C7.85311469,66.352782 7.90780206,67.8699895 7.67296803,69.3823445 C7.64079899,69.5958535 7.49282138,69.8886195 7.77590898,70.0309588 C8.08955717,70.1878556 8.1120755,69.8061274 8.27613763,69.702608 C9.64814741,68.8372497 9.69961788,67.1696154 10.6148272,65.9144416 C10.6309117,66.7118652 10.301179,67.365332 9.95053643,67.871607 C8.27292073,70.3026975 9.08840602,72.6060062 10.2111057,74.87373 C11.8452932,78.1717962 14.5458845,80.048087 18.1134316,80.8261007 C22.5302416,81.7901259 26.8537612,81.4666275 31.1435034,80.1807213 C32.3562764,79.8167856 33.6301706,79.6162166 34.694966,78.8495254 C35.0986875,78.5583768 35.4782822,78.4661798 35.3656906,77.6639037 C35.2418398,76.7985455 35.384992,75.8183453 35.434854,74.8899049 C35.5490541,72.7887828 35.6712965,70.6876606 35.7082909,68.584921 C35.7678036,65.2480349 36.3034182,61.9596736 36.6058073,58.6486674 C36.8760272,55.7032144 37.1945008,52.7690839 37.9762086,49.9077405 C38.1081017,49.4241103 37.9697748,49.2251588 37.4872391,49.0569396 C35.7388515,48.4422927 34.019416,47.7451536 32.2758538,47.1159492 C29.1940593,46.0031147 26.3776594,44.4373824 24.100091,42.0515816 C22.6733938,40.557019 21.4075419,38.9071771 19.9116813,37.4708442 C19.7781797,37.3430623 19.6446782,37.213663 19.5079598,37.0874986 C18.0635696,35.7627726 17.4266225,35.678663 15.6734096,36.5731361 C15.4498347,36.6863606 15.2680796,36.7801751 15.3163332,37.1004385 C15.3774544,37.5177515 15.3790628,37.9431519 15.4080149,38.3847272 C16.6915599,38.2520929 16.2267171,37.1991055 16.418123,36.3499222 C16.8250614,37.0017715 16.9456953,37.5711287 16.6835176,38.1000486 C16.4309906,38.6095586 15.8712492,38.8392425 15.3565445,39.0268715 C15.0686315,39.1320085 15.0461132,38.82792 15.0252033,38.6160286 C14.984992,38.1938631 14.93513,37.7716977 14.9142201,37.3479148 C14.8933102,36.9500118 14.700296,36.901487 14.39469,37.0583837 C13.6387175,37.4401119 12.9342154,37.9091846 12.1557245,38.2601803 C11.6249352,38.4979517 12.0463497,39.0171666 12.0688681,39.4085997 C12.0785188,39.5638789 11.9980962,39.8825248 12.257057,39.8485575 C12.5835728,39.8048852 12.9390407,39.7207756 13.1803086,39.4344795 C13.3282862,39.2565554 13.2816411,39.1045112 13.1384888,38.9411445 C12.9889028,38.7696903 12.779804,38.6144111 12.8570097,38.2068031 C13.3250693,38.3911972 13.6145907,38.6855807 13.7303992,39.1239211 C13.8622923,39.6221086 13.4907399,39.8356176 13.1336635,40.0361866 C12.9728182,40.1267661 12.8071476,40.2092582 12.6479109,40.3030728 C12.4098599,40.4437946 12.3406965,40.9274247 11.9980962,40.7786154 C11.631369,40.6184837 11.7696959,40.1704384 11.7069663,39.843705 C11.6973156,39.7919453 11.7053578,39.7353331 11.6940987,39.6835733 C11.6185014,39.3455175 11.7391353,38.8667398 11.2533828,38.7810128 C10.7997992,38.7017556 9.97948857,39.4085997 10.0068323,39.8259126 C10.0502605,40.4971718 9.94731953,41.0390316 9.19617232,41.2590106 C8.9307777,41.3366502 8.84713818,41.6423562 8.69916058,41.8607176 C8.59300273,42.0176143 8.4691519,42.190686 8.26648692,42.1631886 C8.00913456,42.1276038 7.97857396,41.87851 7.9303204,41.674706 C7.8997598,41.5469241 7.90136826,41.4110548 7.88367528,41.2784205 C7.82737945,40.8788999 7.94479647,40.3515975 7.51694817,40.155881 C6.74810799,39.8048852 6.00821995,40.0378041 5.53694343,40.6459811 C5.31819393,40.9274247 5.13000501,41.2428356 4.66194541,41.5275142 C4.87908646,40.8902224 5.2618981,40.563489 5.53855189,40.1704384 C5.62862521,40.0426565 5.89401984,39.7693004 5.7235239,39.7693004 C5.20077691,39.7725354 5.72513235,38.7308705 4.88069491,39.0656914 C3.96548558,39.4263921 2.96502827,39.5703489 1.89058216,39.8356176 C2.11094012,39.2533204 2.56130676,39.2840528 2.89747328,39.2145006 C3.67757262,39.0527514 4.44480435,38.8618874 5.1943431,38.5933837 C5.5112082,38.4801592 5.8312902,38.3103226 5.77338592,37.9366819 C5.70904783,37.5274564 5.30050095,37.6762657 5.0495824,37.6681782 C3.86736999,37.6325934 2.79935769,37.0777936 1.63966361,36.9483943 C1.25041816,36.9063395 0.865998075,36.8270824 0.484794889,36.7090055 C2.24765857,36.3774196 3.87058689,37.5387789 5.70904783,37.2961551 C4.62012565,36.5100539 3.09692136,36.7057705 2.35542487,35.4570666 C3.3381892,36.1509707 4.53648613,36.2916925 5.59484772,36.7753226 C5.93423114,36.9289844 6.09507637,36.8675197 6.37173016,36.5650487 C6.85587429,36.0345113 7.15665486,35.2904649 7.91906123,35.0446062 C7.48477912,35.9859865 6.60978109,36.6507757 6.33473575,37.710233 C6.19962577,38.2375354 5.78303663,38.7939527 6.07094958,39.2759653 C6.32830195,39.7078357 6.95720678,39.6641634 7.46708615,39.6318136 C7.54590031,39.6269611 7.62310601,39.6091687 7.70192018,39.5962287 C8.84231283,39.3891898 9.87011382,38.8618874 10.9156078,38.4073721 C12.8505759,37.5695112 14.6134395,36.3806546 16.67065,35.7579201 C17.8785976,35.3907495 18.6940829,35.6269033 19.5015259,36.4841741 C19.8393009,36.8432573 20.156166,37.2799802 20.6982144,37.4449643 C20.511634,33.9172142 22.1200862,31.4909762 24.9606129,29.807167 C22.7988531,28.2349647 20.3716986,28.1540901 17.9718878,29.087383 C15.472353,30.0611132 12.9084801,30.9701437 10.8802218,32.8852543 C10.0969056,33.6260656 9.10127364,34.1145482 8.33725882,34.8941794 C8.23110097,35.0009339 8.09920788,35.1173933 7.91584433,35.0478411 C8.28257144,34.2665925 9.0353271,33.8945693 9.66262348,33.3915293 C9.7864743,33.2928623 9.94892798,33.2394851 10.0534774,33.1262606 C12.2200626,30.8180995 15.1233189,29.7812871 17.9316765,28.6474252 C19.9969292,27.8144168 22.1490384,27.7869194 24.2110742,28.9369562 C25.4592331,29.6324778 26.8055077,30.1371353 28.0987033,30.7453123 C29.6926795,31.4925937 31.0196526,32.6620404 32.3385834,33.8120772 C32.9996573,34.3895219 33.6735988,34.9394692 34.4794334,35.478094 C34.2462078,34.7825725 34.0145907,34.1792479 33.8424863,33.5565135 C32.9449699,30.3296169 32.603978,27.0347856 32.7053105,23.6898121 C32.739088,22.6238848 32.689226,21.5644276 32.5299892,20.5098228 C32.4511751,19.9954603 32.283896,19.7269566 31.646949,19.8628259 C30.9376215,20.0132527 30.2009504,20.1475045 29.4530201,19.9339956 C27.5051844,19.3759608 26.575499,17.929923 26.2666761,16.0730421 C25.9594618,14.2242487 26.3664002,12.5210296 27.8172241,11.1963036 C27.9330327,11.0895491 28.0536666,10.9876472 28.2193372,10.8404554 C28.0102384,10.7304659 27.8429594,10.6431213 27.6676381,10.5509243 C27.720717,10.4862246 27.752886,10.415055 27.7786213,10.4166725 C29.3983327,10.5250444 31.0276948,10.198311 32.6425809,10.520192 C32.7986008,10.5509243 32.9867897,10.510487 33.112249,10.5848916 C34.2301233,11.2561508 34.9137155,10.5444543 35.6777303,9.8618727 C39.4881537,6.45705197 43.4819407,3.31588244 48.2847791,1.39915438 C48.9217262,1.14520813 49.5618902,0.894496864 50.2020542,0.645403091 C50.681373,0.459391508 51.1526495,0.58070341 51.5981908,0.744070105 C53.7454745,1.53178873 55.7576483,2.52816382 57.5237289,4.05669379 C59.2656827,5.56257887 61.311634,6.6737959 63.1195343,8.11174632 C64.309789,9.05797916 65.1992631,10.3018305 66.3927347,11.2399759 C67.5315189,12.1328315 68.6349171,12.9674574 70.1902904,13.0871518 C72.041619,13.2294911 73.8157418,13.8651655 75.5367857,14.5331897 C76.7479503,15.0022624 78.0636642,16.3091959 77.9333796,17.8830157 C77.8191795,19.2530314 76.5436769,21.0338902 75.3083855,21.4285582 C74.8435428,21.5773675 74.737385,21.3622411 74.7309512,20.9724255 C74.8226329,20.9190482 74.9110978,20.8317037 75.0076049,20.8203812 C76.2991921,20.6812769 76.910404,19.7398965 77.3205593,18.6933792 C77.7387569,17.620982 77.4878383,16.6504868 76.640184,15.7786586 C75.6493774,14.7628736 74.3352719,14.5315722 73.1064144,14.0980843 C69.8139126,12.9367251 66.6066588,13.2116987 63.4782192,14.7499336 C62.6000042,15.181804 61.6654935,15.4955974 60.7502841,15.8498282 C60.5572699,15.9242328 60.2725738,16.1895015 60.1535483,15.8320358 C60.0280891,15.4583951 60.2886583,15.3435532 60.6489516,15.3273783 C60.9046955,15.3160558 61.1572225,15.1947439 61.4065326,15.1073994 C63.5892024,14.3455606 65.6335452,13.1728789 68.0108376,12.8946703 C66.7948477,12.3948652 65.9713202,11.4373099 65.0931052,10.5670992 C64.5478399,10.0268569 64.0154422,9.4752921 63.4428332,8.96254713 C61.5979385,7.30947027 59.3927504,6.14164102 57.5108613,4.55973381 C55.8750653,3.18486558 54.067165,2.19981294 52.1321969,1.38944943 C51.5724555,1.15653057 50.9934127,0.87508696 50.3709417,1.069186 C49.6664396,1.28916492 48.9796305,1.57222603 48.2912129,1.8423472 C45.104869,3.09266854 42.2498662,4.89131968 39.6087876,7.06199399 C37.9971185,8.38671996 36.295376,9.60307397 34.8316844,11.128369 C36.0010292,11.5618568 37.1494641,11.9678473 38.2818145,12.4126576 C39.4865453,12.8849653 40.6800168,13.3880053 41.8734884,13.8894279 C42.0697196,13.97192 42.2756015,14.1271992 42.1887451,14.373058 C42.1179732,14.5687745 41.9474772,14.4878999 41.7962827,14.3957029 C39.7648075,13.1631739 37.5065405,12.4692699 35.3061778,11.6378789 C33.6559058,11.0151445 31.9702479,10.6690012 30.1864743,10.7514933 C29.4256764,10.7854606 29.136155,11.0636693 29.1345465,11.7802182 C29.1265043,14.1336692 29.3436453,16.4483003 30.046539,18.7144066 C30.2926322,19.5069777 30.7236974,19.6347596 31.4137234,19.4875678 C32.5283808,19.2530314 32.5332061,19.2595014 32.8050346,20.3933633 C32.859722,20.6262822 32.891891,20.8640535 32.927277,21.1002073 C32.9690967,21.3881209 32.9530122,21.7100018 33.2730942,21.8539586 C33.7138101,22.0545276 33.9663371,22.4427257 34.1915204,22.8244539 C35.3544314,24.7897067 36.5028663,26.763047 37.4615039,28.8431417 C38.7611333,31.6591953 41.0419186,33.2346326 44.0030792,33.8913343 C45.6388752,34.25527 47.3020148,34.3151173 48.9699798,34.4008443 C52.7820116,34.5933259 56.5860012,34.662878 60.3819486,34.1517506 C62.0788657,33.9236842 63.2771626,32.9483365 64.071738,31.5427359 C65.0464601,29.8168719 65.6062015,27.8936739 65.7686552,25.9268036 C65.9729286,23.4552757 67.5218681,22.1143748 69.4166249,20.9724255 C69.46327,20.9433106 69.5597771,20.9999228 69.7399238,21.0403601 C69.2686473,21.6242748 68.7330327,22.0351177 68.1781167,22.4087584 C66.987862,23.2126519 66.4200783,24.3723937 66.2704923,25.7521144 C66.0742611,27.5637055 65.6110269,29.3057444 64.9065248,30.9733787 C63.9623633,33.2039002 62.321742,34.459074 59.8575931,34.77125 C57.8454193,35.0268137 55.8428963,34.975054 53.8339394,35.0219613 C50.4352798,35.1012184 47.0462709,35.0591636 43.7167747,34.3296747 C40.858555,33.7037053 38.5697275,32.1395905 37.2910079,29.4529362 C36.3983169,27.5766454 35.317437,25.8135791 34.3957939,23.9599333 C34.1609598,23.4892431 33.8440947,23.0557552 33.5304465,22.6303548 C33.4017704,22.4572832 33.1074236,22.190397 33.0656038,22.6772621 C33.0109165,23.3177889 32.8565051,23.9308184 33.1492434,24.616635 C33.6382129,25.7699068 34.2783768,26.8406866 34.7737801,27.9891059 C35.3608652,29.3477992 35.8884376,30.7517823 36.9162386,31.8743218 C38.4410513,33.5419561 39.9127851,35.28076 42.3077705,35.6964555 C42.8015654,35.7821825 43.3066194,35.8064449 43.8036311,35.8743796 C46.5910789,36.2528727 49.3817436,36.4210919 52.1981435,36.1897905 C53.7454745,36.0620086 55.3056732,35.7708601 56.862655,36.1525882 C58.8828711,36.6459233 60.7647602,36.1234733 62.538883,35.2241478 C63.7355715,34.6175883 64.711902,33.6875303 65.2298237,32.3967717 C65.7348777,31.1383629 66.1884612,29.8556917 66.4249037,28.5131733 C66.6742138,27.0962503 67.0361156,25.7068247 67.3803243,24.310929 C67.5540372,23.6057025 67.8998544,23.0217879 68.5287593,22.6610872 C68.7668102,22.5268353 69.2059177,22.6125624 69.3313769,22.4378733 C70.3141413,21.0791799 71.8019596,21.1244697 73.2061384,20.9805129 C74.6151426,20.8365561 75.1427149,20.1280946 74.8145907,18.7661663 C74.499334,17.4511453 74.2307225,16.1264193 73.9412011,14.8049283 C74.5733228,16.0180474 74.5813651,17.3783582 74.9625683,18.640002 C75.2199206,19.4924203 75.207053,20.2380841 74.7422103,20.9821304 Z M78.1119178,29.1698751 C79.4292402,29.5370458 79.6898095,30.6401754 80.1063986,31.5896432 C80.6387963,32.8027622 80.9090163,34.0692585 80.5197708,35.3972194 C80.4699088,35.5638211 80.5213793,35.8339423 80.2479424,35.7789475 C80.0710127,35.7433627 80.0967479,35.5185313 80.1369592,35.3681046 C80.6227118,33.5419561 79.9375111,31.9665188 79.0914652,30.4299014 C78.6845268,29.6939425 77.9012106,29.4270563 77.2867818,29.8524567 C76.8315898,30.1662502 76.4519951,30.5867981 76.0305806,30.9507338 C75.8102226,31.1415979 75.8504339,31.2839372 76.0547074,31.4586263 C76.6015811,31.930934 76.8637589,32.5763133 77.0439055,33.24919 C77.4894468,34.9265292 78.3998308,36.4405018 78.6732676,38.3038526 C80.4200468,36.2771351 82.3148036,34.6175883 84.3800563,33.1764029 C85.2663135,32.5585209 85.9772494,31.6980151 87.1900224,31.4828887 C88.6649731,31.2192375 90.065935,31.1836527 91.4894152,31.6397854 C92.8340813,32.0700383 94.1803559,32.4922037 95.5700586,32.7558549 C95.8177603,32.8027622 95.9705632,32.7542374 96.0381182,32.4792638 C96.1539268,32.0085736 96.2086142,31.5395009 96.1442761,31.0558708 C95.8241941,28.6603651 94.2913391,27.3259342 92.1858751,26.5236581 C89.9903377,25.6857973 87.7143778,25.5014032 85.3949896,25.8038742 C82.6670546,26.1613399 80.3508834,27.4165137 78.1119178,29.1698751 Z M32.9803559,25.1859922 C33.027001,27.5265032 33.3181309,29.8767191 33.8408778,32.1864977 C34.1143147,33.3931468 34.3443234,34.6839054 35.2788342,35.586466 C37.6915125,37.9156545 40.6172872,39.1287735 43.9483918,39.133626 C47.5223727,39.140096 51.101179,39.3439 54.6751599,39.034959 C57.6009346,38.7826302 60.5299262,38.5836787 63.399405,37.8930096 C65.8024327,37.3139475 66.735335,36.2172879 67.0119888,33.867072 C67.2468228,31.8840267 67.5395611,29.9123039 67.9609756,27.9599911 C68.3051844,26.3602914 68.5593198,24.7444169 69.0241625,23.0509027 C68.3228774,23.295144 68.0767842,23.7173095 67.9078967,24.2526993 C67.1647917,26.6158552 66.8398844,29.0776781 66.1305569,31.4570088 C65.0142911,35.1982679 60.8290983,37.2201329 57.5060359,36.7640002 C56.2707446,36.5941635 55.0402786,36.4243269 53.7889028,36.5553437 C50.1312823,36.9403068 46.4881379,36.799585 42.8594697,36.2366978 C41.9201335,36.0911235 40.9212847,35.994074 40.1331431,35.4376567 C38.3911893,34.2067453 36.8599427,32.736445 35.7597614,30.8763292 C34.6740561,29.0453282 34.0853626,26.9700859 32.9803559,25.1859922 Z M27.3025194,42.5675616 C27.3250377,43.1611812 27.2253137,43.8437628 27.6692465,44.2481358 C28.4541712,44.9614498 29.3902904,45.4806648 30.4020069,45.833278 C30.6722269,45.9270926 30.8202045,45.8235731 30.7896439,45.5324245 C30.6046719,43.798473 31.2689627,42.2198008 31.796535,40.6508335 C32.3337581,39.0559864 32.9031502,37.3964396 34.5212531,36.4793216 C34.8365098,36.3013975 34.79469,36.1655281 34.5035602,35.984369 C33.5787001,35.4069244 32.7535641,34.6968454 31.9589887,33.9511815 C31.7016363,33.7101752 31.4491093,33.7506125 31.1225935,33.7344376 C30.061015,33.6842954 29.7151978,34.3232047 29.4514116,35.1643006 C29.2439213,35.8226198 28.9302731,36.4485892 28.7372588,37.1101435 C28.2112949,38.9168821 27.4810576,40.6718609 27.3025194,42.5675616 Z M31.1660217,33.3947643 C30.9488807,33.1602279 30.8909764,33.0745009 30.8121622,33.0178886 C30.1912997,32.5666084 29.5816963,32.0926832 28.9350984,31.6786052 C27.7561029,30.918384 27.1175474,31.1302754 26.4950764,32.4064767 C25.5911262,34.2568875 25.1857962,36.2836051 24.4507335,38.1938631 C23.4824453,40.7090633 24.1016994,42.3055279 26.4516482,43.6156964 C26.5883666,43.6917186 26.7411696,43.8211179 26.8859303,43.7078935 C27.0290825,43.5962865 26.9390092,43.4118924 26.9197078,43.2582307 C26.8055077,42.3653751 26.9567022,41.4967819 27.2381813,40.6637735 C27.8413509,38.8764448 28.2338133,37.0244164 28.9897858,35.2823775 C29.4095919,34.3167347 29.506099,33.1214081 31.1660217,33.3947643 Z M27.1609756,30.7873671 C26.7331273,30.5867981 26.3068875,30.3797591 25.8742138,30.1872776 C25.7374954,30.1274304 25.6120361,30.0417033 25.4318894,30.099933 C23.3859382,30.7663397 21.3351615,33.7069402 21.0971106,35.6544007 C20.8172399,37.9431519 22.0026692,39.2371455 23.6111215,40.6767134 C23.5194397,39.0301065 24.2014234,37.7425829 24.6566154,36.401682 C25.3144724,34.462309 25.6490305,32.3660394 27.1609756,30.7873671 Z M75.9775017,42.7373983 C76.8959279,41.3415026 77.5714779,40.0280991 78.0475797,38.6127936 C78.1392615,38.3410549 78.2293348,38.0515239 78.1537376,37.7522878 C77.6840695,35.9261393 76.8959279,34.2115978 76.2814991,32.437209 C76.0724003,31.829032 75.5432196,31.6705178 74.9850866,31.9891637 C73.9637194,32.5714608 73.034034,33.2831573 72.1558191,34.1873354 C73.3685921,34.0126462 73.4634908,34.0498486 73.8076996,35.182093 C74.0988294,36.1461182 74.3031029,37.1376409 74.5861905,38.1049011 C75.0204726,39.5962287 75.2826503,41.1425511 75.9775017,42.7373983 Z M28.8578927,13.0256871 C28.8578927,12.6019042 28.8675435,12.1765038 28.8562843,11.7511034 C28.8434167,11.2593858 28.6359263,11.1299865 28.2145118,11.42437 C27.2349644,12.1101866 26.8360682,13.1275891 26.607668,14.2452761 C26.1910789,16.2736111 27.2896518,18.8551284 29.0959437,19.3743433 C29.321127,19.4374255 29.5672202,19.6072622 29.7618429,19.4228681 C29.9371642,19.2578839 29.7698852,19.0136426 29.7071555,18.8292485 C29.0653831,16.9464878 29.0042619,14.9796175 28.8578927,13.0256871 Z M99.3547468,81.3906054 C99.2839749,81.2272387 99.5718878,80.7808109 99.1617325,80.7500785 C98.8336083,80.7241987 98.252957,80.5818594 98.1419738,81.070342 C97.9521764,81.9179078 97.8379763,82.7945885 97.8122411,83.6615642 C97.7897227,84.3570858 98.4684896,84.114462 98.8448674,84.216364 C99.2694988,84.3295884 99.1971185,83.9349204 99.2148114,83.6955315 C99.2694988,82.9579552 99.3064932,82.2187613 99.3547468,81.3906054 Z M4.73110885,82.1314167 C4.85978503,82.48403 4.51075089,83.0808846 5.12196275,83.3138034 C6.16263136,83.7084715 6.76258406,83.2151364 6.59369657,82.1459742 C6.55991907,81.9373177 6.48914717,81.7286612 6.49558098,81.5216222 C6.50684015,81.1172492 6.3331273,80.9910849 5.94066495,80.9538825 C4.84691742,80.850363 4.73593421,80.9344726 4.73110885,82.1314167 Z M88.9834466,32.7607074 C89.087996,32.9790688 88.650497,33.4788739 89.2890526,33.561366 C90.0804111,33.663268 90.521127,33.3025672 90.6465863,32.6749803 C90.8074315,31.8807917 90.3940593,31.7659498 89.7731967,31.6899277 C88.9078494,31.5831732 89.0107903,32.1719403 88.9834466,32.7607074 Z M98.2770838,77.2789406 C98.2449147,77.6072915 98.2384809,77.7399259 98.217571,77.8709427 C98.1484076,78.2769332 98.3542895,78.4807372 98.725842,78.5179395 C99.2228537,78.5680818 99.0845268,78.1604738 99.1054367,77.908145 C99.1665579,77.1948311 99.2035523,76.4782821 99.2389382,75.7633506 C99.2501974,75.5563116 99.4367779,75.2538406 99.0234056,75.2198733 C98.6631123,75.1891409 98.4105853,75.2991304 98.3896754,75.7277658 C98.3607233,76.3100629 98.3060359,76.89236 98.2770838,77.2789406 Z M94.0500712,34.0482311 C94.547083,34.0951383 94.7722663,33.9576515 94.7593987,33.5306336 C94.7336635,32.6135156 93.9358711,32.9273091 93.4742453,32.7283576 C93.1107351,32.5714608 93.0013604,32.8658444 93.0287041,33.1618454 C93.0914337,33.8460446 93.6769103,33.8978043 94.0500712,34.0482311 Z M86.2619454,32.5035262 C85.9836832,32.4630889 84.9993104,33.1618454 85.0057442,33.3979993 C85.0137865,33.6390056 84.9349723,33.962504 85.300091,34.0482311 C85.4271587,34.0789634 86.6495824,33.2993323 86.6334979,33.2055177 C86.5836359,32.9208391 86.5225147,32.6361605 86.2619454,32.5035262 Z M8.30026442,41.3560601 C8.72007045,41.066529 9.04176091,40.8481676 9.36023445,40.6233362 C9.64332205,40.4227672 9.67227419,40.142941 9.54038111,39.85341 C9.39401195,39.5331466 9.14952721,39.7175406 8.93238615,39.7693004 C8.03004444,39.9876618 8.27292073,40.6670085 8.30026442,41.3560601 Z" id="Stroke-5" stroke="#1D1D1B" stroke-width="0.144"></path>
                            <path d="M59.1477807,64.4412465 C58.9583227,65.1690829 58.2880555,65.3251652 57.7738125,65.6554024 C56.393476,66.545893 54.9351274,67.2605855 53.3653329,67.7304754 C53.1535858,67.7929083 52.967312,67.8044091 52.757157,67.7896223 C52.3113736,67.7600489 51.8608139,67.7222605 51.4198067,67.7649778 C48.7053041,68.0360681 46.9062496,66.6921174 45.5673073,64.3870285 C44.000697,61.6925553 44.40031,59.0539431 45.8347774,56.5484116 C47.2453635,54.0839544 49.2832305,52.2487553 52.1362444,51.8955165 C54.5227777,51.5997816 56.8965744,51.980951 59.0745448,53.1261021 C60.1730825,53.704428 60.6379709,54.8742237 61.0168869,55.9848724 C61.3607769,56.9903709 61.6250628,58.0468016 61.5486428,59.1623792 C61.5199853,59.576408 61.4292365,59.752206 61.0550969,59.8129959 C59.6540633,60.0430119 58.2434772,60.1333753 56.8281148,60.151448 C56.6259202,60.154734 56.3839235,60.2352396 56.2899906,59.9575774 C56.2135705,59.7259184 56.3536739,59.5386197 56.4762643,59.3628217 C56.8790615,58.7828528 57.4442512,58.3803248 57.9680467,57.9317936 C58.6287614,57.3666114 59.3340545,56.8523613 59.9199412,56.1886009 C59.2846999,57.6130571 57.72605,58.2176706 56.9634419,59.6733433 C58.278503,59.7456341 59.4916707,59.635555 60.6936939,59.3973241 C61.1394773,59.3086037 61.4021711,58.9668656 61.2955015,58.5068336 C61.0948989,57.6426306 60.8178764,56.7965003 60.582248,55.9405122 C60.4692101,55.5314123 60.2654234,55.5839874 59.9390462,55.7055673 C58.7943381,56.126168 57.974415,57.0347312 57.0096124,57.7247792 C56.6004469,58.0155851 56.223123,58.3540373 55.8314705,58.6727737 C55.7232088,58.7598512 55.5846975,58.8436428 55.4828042,58.7384926 C55.4063841,58.6612729 55.3681741,58.485475 55.3952396,58.3753959 C55.4477783,58.1716674 55.5401192,57.9712249 55.6499729,57.792141 C56.2167547,56.8638621 56.5001456,55.8320761 56.641841,54.7312852 C55.6579334,55.7729291 54.9207986,56.9673693 54.470239,58.3622521 C54.1183885,58.2258855 54.1183885,58.2258855 54.0690339,57.8775755 C53.919378,56.8326457 53.5866326,55.8402909 53.2729921,54.6343499 C52.8558662,55.8862941 53.1774671,56.9591545 53.1917958,58.0205141 C53.19498,58.253816 53.4146875,58.5314782 53.1806512,58.7039902 C52.9609437,58.8682873 52.738052,58.6349854 52.5342653,58.5314782 C51.5423972,58.0303719 50.5202795,57.6360587 49.3755714,57.6409876 C49.8531964,57.8348583 50.3340057,58.0238 50.8100387,58.2242425 C51.0743246,58.3376075 51.3513471,58.4411147 51.5901597,58.600483 C52.7651174,59.3825374 52.7428282,59.8573561 51.5105555,60.5457612 C50.2591778,61.245667 49.0682992,62.7309132 48.7673954,64.0157169 C49.5650293,63.7873439 50.0474306,63.0545786 50.7957099,62.8393493 C50.1525082,63.7610563 49.1845213,64.2785923 48.3327566,64.9407098 C48.2308632,65.0212154 48.1098649,65.1197937 47.9936428,64.9834271 C47.8726444,64.8437745 47.9299594,64.6745485 47.9952348,64.526681 C48.8087896,62.6914819 49.6892118,60.9055719 51.5790151,59.978936 C52.1203235,59.7144176 51.9674835,59.4449703 51.6331459,59.1443065 C51.2032834,58.7582082 50.6556066,58.6481291 50.1429557,58.4476866 C49.4615439,58.1815253 48.7307775,58.0040843 48.1846928,57.4520459 C48.0732469,57.3386809 47.9586169,57.2056002 48.0398132,57.0265163 C48.1082728,56.8753629 48.245192,56.9000075 48.378927,56.927938 C49.6557781,57.1924564 50.9899442,57.1940994 52.1824148,57.8397872 C52.6504874,58.0928048 52.8224324,57.966296 52.7826303,57.4011138 C52.7030261,56.297037 52.663224,55.1880313 52.6393428,54.0806685 C52.6345665,53.8309368 52.6345665,53.4678401 52.9306941,53.3856916 C53.2936892,53.2871133 53.3000575,53.706071 53.4099113,53.9114424 C53.5468305,54.166103 53.5914088,54.4716957 53.6678288,54.7592157 C53.8891284,55.5774155 54.1056518,56.3956153 54.3237673,57.215458 C54.3874506,57.2253159 54.452726,57.2351737 54.5180015,57.2433886 C55.099112,55.8780793 56.0862039,54.7772884 56.7118927,53.4399096 C56.7787602,53.2953281 56.8233386,53.0932426 57.0096124,53.127745 C57.2070307,53.1655334 57.1847416,53.3741908 57.1656366,53.5302731 C57.0701115,54.279468 57.0541907,55.0385209 56.8074177,55.7647142 C56.6020389,56.3709707 56.4380543,56.9903709 56.2199389,57.7214932 C57.4235541,57.0281593 58.2721347,56.0719499 59.364304,55.4755513 C60.3084096,54.9596582 60.3131859,54.6918539 59.4646053,53.9426589 C59.326094,53.819436 59.1828065,53.6978561 59.0251902,53.6058497 C57.0430461,52.4442689 54.8555232,52.1304614 52.6504874,52.2602561 C48.9250117,52.4771283 45.9780649,56.0620921 45.1374447,59.3677506 C44.4353358,62.1279427 46.0417482,65.2233009 47.9697615,66.5787524 C49.350098,67.5513915 50.8482487,67.408453 52.3623202,67.347663 C52.699842,67.3345193 52.6871053,67.060143 52.6855132,66.8120543 C52.680737,65.7293361 52.6664082,64.6482609 52.4992394,63.5754006 C52.4212273,63.0710083 52.5071999,62.2889539 52.2397298,62.1262997 C51.824196,61.8765681 51.4596088,62.6011185 51.0042729,62.7785594 C50.9310371,62.8064899 50.854617,62.8278485 50.7797891,62.8541361 C51.3354263,62.284025 51.8910635,61.7171998 52.4435165,61.1454458 C52.5565544,61.0287948 52.6743686,60.8940711 52.8415374,61.0090791 C53.005522,61.1240871 52.9179574,61.2982421 52.8861158,61.4526814 C52.7730778,62.0145777 52.7874066,62.5814028 52.8272087,63.1498709 C52.9068128,64.2654486 52.9911933,65.3810262 53.1281125,66.5015327 C53.6885259,64.930852 54.0738101,63.3289548 54.2218739,61.6679107 C54.2473473,61.3918915 54.127941,61.0090791 54.4925281,60.902286 C54.8125369,60.8086366 55.0179157,61.0928707 55.1994133,61.3212437 C55.4445941,61.6350513 55.6388284,61.6646247 55.9588372,61.3705329 C56.297951,61.0600113 56.7946811,61.1142293 57.2245436,61.0222229 C57.9569021,60.8644976 58.6892606,60.7182732 59.4359478,60.6279098 C58.5475651,61.2768835 57.4474354,61.3015281 56.3282006,61.768132 C57.4346987,62.3760314 58.335818,63.090724 59.2146482,63.836633 C59.5505778,64.1225101 59.6667999,64.3147377 59.1366361,64.4576762 C57.5413683,63.6739788 56.0225205,62.7621297 54.6389998,61.4411806 C54.2855573,63.2073749 53.9687326,64.815844 53.6407634,66.4226701 C53.519765,67.0174258 53.7171834,67.1110751 54.2584918,66.9664936 C56.0670988,66.48346 57.6098279,65.4730326 59.1477807,64.4412465" id="Fill-7" fill="#1D1D1B"></path>
                            <path d="M0.292740068,66.353634 C2.38934192,68.0215952 4.36331555,69.7825597 6.05967253,71.7737456 C6.18230075,71.9170622 6.43096352,72.093921 6.19422293,72.2875508 C5.9830299,72.4598357 5.84507315,72.2570579 5.7411798,72.1137413 C4.27815707,70.0798654 2.31780879,68.4286753 0.510745784,66.6600876 C0.422180962,66.5716582 0.364273194,66.4557852 0.292740068,66.353634" id="Fill-9" fill="#1D1D1B"></path>
                            <path d="M5.32793667,74.7426934 C5.54271769,74.7537681 5.88572617,74.5973381 5.91297451,74.8977391 C5.94342853,75.2355172 5.57477455,75.1593787 5.32793667,75.164916 C4.04085342,75.1870654 3.7779871,74.9254258 3.97193115,73.8248785 C4.03764773,73.4428016 4.10176147,73.0607248 4.17388942,72.678648 C4.21716619,72.4516168 4.26044297,72.2079736 4.60024577,72.1761339 C5.03301348,72.1373725 5.43212149,72.2522724 5.80398116,72.4350048 C5.84084656,72.4543855 5.8536693,72.5955878 5.82802381,72.6094312 C5.74467595,72.6523456 5.64049113,72.674495 5.54111484,72.6814166 C5.23016322,72.703566 4.76694148,72.390706 4.63550832,72.7797045 C4.44797564,73.3375921 4.22357757,73.9411627 4.42072731,74.522584 C4.53613203,74.8589777 5.00576515,74.712238 5.32793667,74.7426934" id="Fill-11" fill="#1D1D1B"></path>
                            <path d="M97.5342678,31.9932181 C98.4272116,32.6532181 99.3937496,33.0692181 100.396267,33.3772181 C100.504205,33.4112181 100.567987,33.5512181 100.515653,33.6892181 C100.46332,33.8272181 100.34884,33.8252181 100.239266,33.7832181 C99.2498319,33.4132181 98.2064288,33.1752181 97.5342678,31.9932181" id="Fill-13" fill="#1D1D1B"></path>
                            <path d="M4.8087549,44.5274849 C4.522988,44.3850195 4.60890484,44.1792363 4.66306981,44.0446857 C5.09825732,42.961949 5.45313125,41.8538852 6.08256553,40.8344665 C6.17595341,40.6825035 6.23758941,40.4276488 6.51401752,40.5685312 C6.71199982,40.666674 6.54763716,40.8423813 6.45611704,40.9769319 C5.70527851,42.0834127 5.21032277,43.2769557 4.8087549,44.5274849" id="Fill-15" fill="#1D1D1B"></path>
                            <path d="M96.680943,30.3976714 C97.6932031,29.7484236 98.6446956,29.010498 99.680943,28.3976714 C98.8142052,29.2622795 97.9218811,30.0904663 96.680943,30.3976714" id="Fill-17" fill="#1D1D1B"></path>
                            <path d="M99.9365953,31.2953571 C98.9626988,31.8393571 97.9717163,32.3613571 96.9365953,31.4353571 C97.9432398,31.6713571 98.9342223,31.5253571 99.9365953,31.2953571" id="Fill-19" fill="#1D1D1B"></path>
                            <path d="M99.6490637,36.9210312 C98.7334551,36.1692064 98.167361,35.0688414 97.6490637,33.9210312 C98.4287501,34.8060677 98.8858076,36.0195713 99.6490637,36.9210312" id="Fill-21" fill="#1D1D1B"></path>
                            <path d="M96.6248863,34.5187036 C97.1628863,35.5125161 97.2748863,36.606281 98.1328863,37.5187036 C97.1928863,36.8975709 96.4608863,35.4682515 96.6248863,34.5187036" id="Fill-23" fill="#1D1D1B"></path>
                            <path d="M63.338401,27.8107527 C63.2151413,31.8862455 61.3345986,34.0979356 56.930564,34.4004464 C55.8562061,34.4743935 54.8001706,34.2693584 53.7607918,34.0206273 C52.3966071,33.6962685 51.2023208,31.813979 51.4088641,30.257729 C51.7020222,28.062845 52.7230786,26.3200467 54.6319378,25.1318514 C55.7979076,24.4058255 56.9089103,23.5974494 58.3463845,23.4882094 C58.9959962,23.4394716 59.6422767,23.5571146 60.3002168,23.4260266 C60.6633331,23.3537602 61.013124,23.6764383 61.2846284,23.9571012 C62.1157983,24.8108539 62.725434,25.8309875 63.3184129,26.8528018 C63.4566636,27.0931298 63.338401,27.4880745 63.338401,27.8107527 M58.5246113,26.6780178 C59.0542947,26.0461063 59.534008,25.452849 60.035375,24.8797591 C60.4551242,24.3991031 60.4151481,24.1789424 59.7338886,24.071383 C56.692373,23.5873657 52.9562726,26.135179 52.0801296,29.3233067 C51.4738252,31.5282744 52.4732279,33.2021675 54.6985646,33.6559337 C56.0444269,33.9315547 57.3936206,34.0391141 58.7394829,33.5450131 C58.2048024,32.6912604 57.6667906,31.8980098 57.2020684,31.0610632 C57.0021879,30.7014115 56.8656028,30.7098146 56.5907671,30.926614 C55.9644747,31.4173537 55.3381824,31.9097741 54.6919019,32.373624 C54.352105,32.6156327 53.9373529,33.2122512 53.6142127,32.8996567 C53.1894665,32.4912671 53.7557947,31.9938049 54.0173051,31.6257501 C54.5719736,30.8409026 55.2015973,30.1081542 55.8195613,29.3720446 C56.2393105,28.8712211 56.1027254,28.6073645 55.5114122,28.4846795 C54.9767317,28.3754395 54.4370543,28.2830057 53.9090365,28.150237 C53.6891679,28.0947767 53.3626963,28.0527613 53.4093351,27.7149576 C53.4459799,27.4426979 53.7324753,27.4712683 53.9406842,27.429253 C54.706893,27.2695945 55.4747674,27.3603477 56.2309821,27.472949 C56.8755968,27.5687441 57.19374,27.3317773 57.3369878,26.7015464 C57.4819011,26.05619 57.69011,25.4259592 57.8883249,24.7940477 C57.9432921,24.6175831 58.0149159,24.4058255 58.2714293,24.4394378 C58.5396023,24.4747308 58.5196143,24.696572 58.52128,24.884801 C58.5279426,25.4326816 58.5246113,25.9822429 58.5246113,26.6780178 M61.2546463,28.1048604 C60.6566704,28.1922524 60.0620258,28.2712414 59.4823722,28.4107325 C59.2991484,28.4544285 59.0976022,28.5821552 58.9426948,28.4056906 C58.7611366,28.1972943 58.9327007,27.9872173 59.0243126,27.7973078 C59.2691663,27.2914425 59.5273453,26.790619 59.7805274,26.288115 C59.7255602,26.2393771 59.6705931,26.1923199 59.6156259,26.143582 C58.8444202,27.3082486 57.8716682,28.1216666 56.201,28.040997 C57.0105162,28.657783 56.6523969,29.1132298 56.3242597,29.5737184 C55.8578718,30.2308391 55.2149227,30.7551912 54.7452034,31.6644042 C55.5397286,31.123246 56.2159911,30.75183 56.7240208,30.1652951 C57.1654236,29.6577492 57.3936206,29.8274914 57.5551907,30.3686496 C57.7300862,30.9551845 58.039901,31.4576885 58.5862411,32.0694326 C58.4446591,31.3434067 58.3380561,30.817374 58.2397815,30.2896607 C58.1031965,29.5569123 58.2531069,29.4073375 58.9327007,29.6661523 C59.6222886,29.9266477 60.3235362,30.0745419 61.0647598,30.0627776 C60.6450107,29.8829517 60.2036078,29.7972403 59.7738647,29.6711942 C59.5373394,29.6006083 59.1459066,29.7266545 59.1175902,29.3317098 C59.0926052,28.9754193 59.4707125,28.9434876 59.6955781,28.8258445 C60.2036078,28.5619879 60.7332913,28.3418272 61.2546463,28.1048604 M58.7628023,30.3115087 C58.9909992,31.2660983 59.1858828,32.0912806 59.387429,32.9147822 C59.4873692,33.3248524 59.7638706,33.2324186 60.0270467,33.121498 C60.8565509,32.7719299 61.5244851,32.2324523 61.980879,31.4358405 C62.2657087,30.9400589 62.1940849,30.6358675 61.5761209,30.6627573 C60.6666644,30.7047727 59.7855244,30.5400724 58.7628023,30.3115087 M61.0247837,24.5033012 C60.5983719,25.5251155 60.3152078,26.5318042 59.772199,27.4225305 C59.5789811,27.7401668 59.8404915,27.8258782 60.0786825,27.7586536 C60.8365629,27.5452154 61.5877806,27.2998456 62.3389983,27.0595175 C62.6171654,26.9704449 62.6404848,26.7721323 62.5072311,26.5418879 C62.097476,25.83771 61.6960492,25.1268096 61.0247837,24.5033012 M60.2552436,29.1838156 C60.769936,29.3434741 61.1547061,29.4745621 61.5461388,29.5821215 C62.6887892,29.8997579 62.7670758,29.8426169 62.8936668,28.6342543 C62.9019951,28.5519042 62.9053265,28.469554 62.9103235,28.3888845 C62.9336429,27.9872173 62.8403653,27.8023496 62.4056251,28.0477195 C61.742688,28.4208162 61.0630942,28.7603005 60.2552436,29.1838156" id="Fill-25" fill="#1D1D1B"></path>
                            <path d="M60.5119387,21.3906524 C58.3703432,19.9637365 56.2695998,20.3781029 54.252132,21.3828635 C52.2613752,22.3736042 50.4183147,23.6276078 48.8407931,25.2025116 C47.5083845,26.531288 47.7676385,28.2292556 49.3718711,29.2199962 C49.5022838,29.3010002 49.6625499,29.3508488 49.7646803,29.456777 C49.8950929,29.5938607 49.9280889,29.7916972 49.7913913,29.9459163 C49.6704061,30.0783266 49.5085687,30.0300358 49.3718711,29.9381275 C47.2742702,28.5205582 46.8311815,26.5032482 48.6601009,24.7974918 C50.5660109,23.0216359 52.7091777,21.5215049 55.1257396,20.4840312 C56.4125824,19.9310234 57.8141254,19.9699676 59.1795301,20.1366488 C59.8284508,20.2145372 60.3359602,20.6242303 60.5119387,21.3906524" id="Fill-27" fill="#1D1D1B"></path>
                            <path d="M59.9444199,19.8757154 C59.5178438,20.0802617 59.2583298,19.8820092 59.0199014,19.7561345 C57.3217068,18.8671449 55.4824015,18.8498371 53.7079746,19.2180204 C51.5637404,19.6617285 49.8687897,20.9865591 48.4057797,22.5316703 C47.8186293,23.1547498 47.226613,23.8014308 46.8486958,24.594441 C46.2858749,25.7776626 46.1609838,26.9278421 47.0157579,28.0371124 C47.1309172,28.1850151 47.2979794,28.3360647 47.0952341,28.4981283 C46.8649154,28.6822199 46.7205608,28.4981283 46.5778281,28.3266241 C45.807396,27.4108861 45.7165661,25.7021378 46.4334734,24.5016085 C47.6061522,22.5411109 49.2216267,21.0337621 51.2069087,19.8033375 C53.3608747,18.4690663 55.5959388,18.3337511 57.9640039,18.863998 C58.6792893,19.0244882 59.3150985,19.3926715 59.9444199,19.8757154" id="Fill-29" fill="#1D1D1B"></path>
                            <path d="M62.1431346,22.9895566 C60.2432112,21.8078255 58.2660418,22.3735834 56.4285726,22.9041907 C54.5533022,23.4448411 53.1842398,24.9261896 51.9828176,26.4828609 C51.7658713,26.7640661 51.5817957,27.0720526 51.3632059,27.3499101 C50.5282915,28.407777 50.4822726,29.0120333 51.1939221,30.166983 C51.3434835,30.4096898 51.4273037,30.6473751 51.1544773,30.7996946 C50.8537109,30.9687524 50.7452378,30.6959165 50.6252599,30.4699481 C49.9645599,29.2279587 50.0582412,28.3023251 50.8931557,27.1875476 C51.8595527,25.8936692 52.9015522,24.691852 54.1342014,23.633985 C55.9815318,22.0505323 58.1674298,21.9584711 60.3911291,21.854693 C61.0797691,21.82289 61.5859771,22.1141382 62.0691756,22.5309244 C62.1792923,22.6246594 62.2368159,22.7435021 62.1431346,22.9895566" id="Fill-31" fill="#1D1D1B"></path>
                            <path d="M71.1781257,16.9359776 C71.4981257,16.9379776 71.6921257,17.1139776 71.6641257,17.4199776 C71.6321257,17.7559776 71.3961257,17.9499776 71.0481257,17.9179776 C70.7281257,17.8879776 70.6001257,17.6679776 70.6241257,17.3639776 C70.6501257,17.0239776 70.8881257,16.9419776 71.1781257,16.9359776" id="Fill-33" fill="#1D1D1B"></path>
                            <path d="M32.3285005,16.554844 C32.0225005,16.542844 31.8305005,16.386844 31.7825005,16.086844 C31.7265005,15.732844 32.0045005,15.636844 32.2545005,15.566844 C32.6305005,15.460844 32.7065005,15.774844 32.7545005,16.020844 C32.8165005,16.326844 32.6465005,16.516844 32.3285005,16.554844" id="Fill-35" fill="#1D1D1B"></path>
                        </g>
                    </g>
                </g>
            </g>
        </g>
    </g>
</svg>