<svg xmlns="http://www.w3.org/2000/svg" xmlns:xlink="http://www.w3.org/1999/xlink" width="20" height="17">
    <path d="M5.363 1.002c-1.15 0-2.401.444-3.363 1.68-.958 1.233-1.238 2.797-.808 4.52.83 3.336 4.116 6.595
            8.806 8.749 4.689-2.154 7.974-5.413 8.805-8.75.43-1.722.15-3.285-.808-4.518C16.592.882 14.575.76
            13.157 1.248c-1.615.554-2.66 1.86-2.66 3.33a.5.5 0 1 1-1 0c0-1.47-1.043-2.776-2.657-3.33a4.592
            4.592 0 0 0-1.477-.246M9.998 17a.504.504 0 0 1-.205-.044C4.717 14.68 1.138 11.124.22
            7.444c-.5-2.004-.147-3.913.99-5.375C2.935-.148 5.418-.296 7.164.302c1.28.44 2.276 1.273 2.834
            2.308.557-1.035 1.552-1.868 2.834-2.308 1.745-.597 4.227-.451 5.952 1.767 1.138 1.462 1.489
            3.37.989 5.375-.916 3.68-4.494 7.236-9.57 9.512a.511.511 0 0 1-.205.044" fill="#7f7a77"/>
</svg>