<svg width="16" height="16" xmlns="http://www.w3.org/2000/svg" xmlns:xlink="http://www.w3.org/1999/xlink"><defs><path id="a" d="M0 16h16V0H0z"/></defs><g fill="none" fill-rule="evenodd"><path d="M8 15c-3.859 0-7-3.141-7-7s3.141-7 7-7 7 3.141 7 7-3.141 7-7 7M8 0a8 8 0 1 0 0 16A8 8 0 0 0 8 0" fill="#7F7977"/><path d="M8 11c-1.654 0-3-1.346-3-3H4c0 2.206 1.794 4 4 4s4-1.794 4-4h-1c0 1.654-1.346 3-3 3" fill="#7F7977"/><mask id="b" fill="#fff"><use xlink:href="#a"/></mask><path fill="#7F7977" mask="url(#b)" d="M5 6h1V4H5zM10 6h1V4h-1z"/></g></svg>