<svg xmlns="http://www.w3.org/2000/svg" width="16" height="16" viewBox="0 0 16 16"><path d="M15.9.49a.51.51,0,0,0-.44-.43c-.3,0-7.54-.83-12.22,3.83a6.34,6.34,0,0,0-.41,8.56L.14,15.14A.5.5,0,0,0,.49,16a.51.51,0,0,0,.36-.15l2.69-2.68a6.25,6.25,0,0,0,4.08,1.51,6.43,6.43,0,0,0,4.54-1.88C16.83,8.12,15.94.8,15.9.49ZM11.45,12.08a5.35,5.35,0,0,1-7.19.36L9.85,6.85a.49.49,0,0,0-.7-.7L3.56,11.73A5.32,5.32,0,0,1,4,4.6C7.14,1.42,11.77,1,14,1L15,1C15.06,2.59,15.18,8.36,11.45,12.08Z" style="fill:#77C26B"/></svg>