<?xml version="1.0" encoding="UTF-8"?>
<svg width="411px" height="165px" viewBox="0 0 411 165" version="1.1" xmlns="http://www.w3.org/2000/svg" xmlns:xlink="http://www.w3.org/1999/xlink">
    <!-- Generator: sketchtool 54.1 (76490) - https://sketchapp.com -->
    <title>87321F8D-80C0-47DB-BBB7-D57456265FEC</title>
    <desc>Created with sketchtool.</desc>
    <defs>
        <polygon id="path-1" points="0.954462649 0.620464 58.9806724 0.620464 58.9806724 51.9489529 0.954462649 51.9489529"></polygon>
        <polygon id="path-3" points="0.125502959 0.307189427 174.093183 0.307189427 174.093183 233.999885 0.125502959 233.999885"></polygon>
    </defs>
    <g id="About-Davines---desktop" stroke="none" stroke-width="1" fill="none" fill-rule="evenodd" opacity="0.2">
        <g id="About-Davines" transform="translate(-955.000000, -814.000000)">
            <g id="A-story-of-craftmanship" transform="translate(0.000000, 70.000000)">
                <g id="Intro" transform="translate(43.000000, 744.000000)">
                    <g id="Foglie" transform="translate(880.000000, 0.000000)">
                        <g transform="translate(289.500000, 48.000000) scale(-1, 1) translate(-289.500000, -48.000000) translate(28.000000, -69.000000)">
                            <path d="M185.168599,58 L155,58 C155.403443,58.6990481 155.783952,59.4127822 156.233265,60.0912701 C158.964587,64.2228991 162.317233,67.4048409 166.381899,69.7330432 C167.727752,70.5045417 169.266467,70.9676367 170.68738,71.7078053 C175.389007,74.1554528 179.519349,75.1854229 184.860022,75.850204 C185.686716,75.9530052 186.549897,76 187.446438,76 C190.354984,76 193.60755,75.5124286 197.065487,74.8828937 C200.142916,74.3209138 202.907598,73.3222736 205.764018,73.3222736 C205.964176,73.3222736 206.165377,73.3271689 206.36762,73.3379385 C206.702259,73.3555616 207.155742,73.4338863 207.687411,73.4985042 C207.756216,73.5082948 208.423409,73.6032635 208.777855,73.6032635 C208.981141,73.6032635 209.083305,73.5729127 208.916506,73.477944 C208.27329,73.1068806 206.318623,72.781833 205.635792,72.6183302 C204.36187,72.317759 203.220344,71.9564863 202.299826,71.4689149 C200.130406,70.3234158 198.835634,68.6061463 197.32611,66.9064999 C194.229916,63.408322 191.47983,59.4754419 186.879324,58.4768017 C186.27885,58.3465869 185.712778,58.1840631 185.168599,58" id="Fill-1" fill="#7F7977"></path>
                            <path d="M426.434048,74.4546223 C434.2574,79.4485865 441.625869,78.7690157 450.616367,74.8874325 C454.340522,73.2834888 457.271521,70.3135489 461.066062,68.8633409 C462.005243,68.5137634 463.066285,68.2435018 463.937181,67.5835151 C464.084256,67.4679685 463.950838,67.2417713 463.765943,67.278002 C461.84451,67.7206044 459.170893,67.9986996 456.97527,67.8988203 C454.357331,67.7822945 451.703673,66.4965935 449.638317,65.2735619 C445.907859,63.0507583 442.774106,60.1836353 439.112983,58 L415,58 C416.987617,62.1988467 419.247322,69.8640921 426.434048,74.4546223" id="Fill-3" fill="#7F7977"></path>
                            <path d="M332.728083,79.7782566 C333.790707,81.2335396 334.761743,81.8623918 337.118041,81.9261268 C338.101566,81.9558698 338.962281,82.0196049 339.810506,81.9941109 C347.332133,81.7636025 352.504748,76.5543268 355.689496,70.0406077 C356.58976,68.1933543 357.36305,66.1665807 357.670077,64.08457 C357.957329,62.1353406 357.98647,60.0809484 358,58 L333.015335,58 C329.570395,64.7325427 328.569176,74.0920305 332.728083,79.7782566" id="Fill-5" fill="#7F7977"></path>
                            <path d="M213.549712,61.4291452 C214.868798,61.903886 217.107719,62.2643565 219.091534,62.2975988 C219.518786,62.3038317 220.671949,62.2144932 220.825428,62.4077137 C218.708875,66.0165747 213.92926,70.513627 215.388344,75.0937848 C216.420177,78.33802 221.206014,78.603958 224.634394,78.1634982 C224.708022,78.1686923 224.784762,78.1780417 224.856316,78.1832358 C230.062145,77.6201953 234.833463,76.3133596 238.491025,72.003295 C240.487284,69.6451734 241.681929,67.09487 243.070495,64.3721225 C243.402341,63.7249376 243.732113,63.0424328 244.084699,62.3630444 C244.648836,65.4067873 245.643336,68.3892399 246.680354,70.9572032 C247.083754,71.9575869 247.535894,72.9361555 248.034699,73.8929088 C244.077439,76.6104622 239.429526,77.9900153 234.90087,79.6271958 C227.198939,83.2007369 218.937019,89.0638376 215.113534,96.5599635 C213.588081,99.5476101 212.707653,102.82301 211.949593,106.077633 C211.147979,109.532749 208.416474,115.485188 212.555212,117.89629 C215.82078,119.801486 220.641876,119.010944 224.41662,117.810068 C226.889908,118.794869 229.018905,119.150145 232.098848,119.209358 C234.46947,119.175077 236.624393,118.862392 238.775168,118.284808 C238.959757,118.233906 239.880629,117.894212 240.116032,118.184043 C240.47484,118.630735 239.032348,119.236368 238.90998,119.298697 C237.410452,120.086122 235.638189,120.876664 233.956146,121.325435 C230.13681,122.339323 226.038516,122.288421 222.148663,122.998974 C215.839447,124.153103 216.338252,131.327195 219.505304,135.453388 C220.569285,136.839174 221.703782,138.17198 222.738726,139.581659 C224.092034,141.423487 224.817946,143.829395 226.373473,145.505012 C230.090144,149.50343 235.930628,137.581931 236.539358,135.410797 C237.496525,131.99204 237.497562,127.717295 238.464063,124.068959 C238.885092,122.481642 239.658707,120.817452 240.514247,119.807719 C241.44134,118.715919 242.859981,117.841232 243.737298,116.923954 C244.168697,116.480378 244.714168,115.911104 245.24201,115.344947 C245.976219,114.569988 246.599467,113.971627 247.083754,114.472339 C247.660336,115.064466 246.607763,116.159382 246.46258,116.315205 C246.057106,116.760859 245.509561,117.260532 245.226455,117.756049 C243.487376,120.777977 244.586615,125.059993 247.038125,126.105046 C247.359601,126.243209 248.354101,126.297228 248.63928,126.619262 C249.035421,127.056605 248.761649,128.687553 248.721205,129.620413 C248.594689,132.589361 248.772019,135.938517 249.422229,138.263397 C250.296435,141.392323 251.058643,144.662528 253.318304,147.121416 C258.695241,152.987633 267.39582,156.915412 275.283377,156.999556 C279.30908,157.046303 279.248933,153.392773 277.639481,150.33137 C275.198341,145.68265 275.869292,140.422065 271.259748,136.358201 C267.699666,133.211614 263.903144,132.350433 259.000125,131.746878 C253.929108,131.122547 250.418803,131.142285 250.290213,127.035829 C250.276731,126.623417 254.360507,128.771697 256.709352,126.049989 C260.371062,121.801214 254.982718,116.111597 251.335527,114.27704 C250.897905,114.059927 250.217621,114.070315 249.66178,113.676602 C249.105938,113.286006 248.987718,112.374961 248.740908,111.497158 C248.600911,110.99333 248.1664,108.956204 248.971126,108.692343 C249.341341,108.574957 250.5868,108.958281 251.246343,109.115143 C253.171048,109.577418 253.856517,109.922306 255.48982,110.49989 C256.254102,110.772061 256.985199,110.999563 257.566966,111.234336 C258.909904,111.769329 260.144992,112.554677 261.628964,112.768674 C264.656019,113.199784 266.747684,111.82127 268.015957,109.819463 C268.582168,108.927117 268.844534,107.111259 268.826904,105.503166 C268.828979,105.218529 268.806164,104.806117 268.875644,104.492394 C272.006401,104.980639 274.129176,108.21968 277.353264,108.759867 C280.151138,109.230452 282.001178,106.495239 282.88368,104.273203 C284.105287,101.218033 284.289876,97.7888877 284.612388,94.552963 C284.948382,91.1882247 284.687054,88.2026557 283.883365,85.1620293 C284.272246,85.2222808 284.882013,85.6191101 285.208673,85.7946707 C287.7587,87.1659133 290.378207,88.3470517 293.728811,89.0721482 C295.03649,89.3536684 296.625202,89.2258935 298.064582,89.6362275 C299.120266,89.9426794 300.293133,91.0916144 301.452519,92.0109702 C303.826253,93.889157 305.542517,95.2697489 307.681885,97.1915661 C308.633867,98.0517091 309.990286,99.0780634 310.354279,100.069098 C310.489092,100.445151 311.088488,101.185829 310.296206,102.058438 C308.776975,103.730939 306.621015,101.690696 303.164635,103.261392 C301.937843,103.822355 301.134155,104.950513 300.091952,105.776375 C298.772865,106.823506 297.141636,107.274354 295.533222,107.643135 C294.28569,107.92985 292.603647,108.152157 292.062324,109.576379 C291.649591,110.680645 292.346466,112.216021 293.534889,113.311976 C295.235598,114.87644 297.379113,115.681525 299.655367,115.871629 C303.129377,116.166654 305.354817,114.765286 306.694644,113.54675 C308.042767,112.328214 308.531202,111.522089 309.147191,109.624165 C309.617997,108.186438 309.806734,107.363693 310.045248,105.194636 C310.286873,102.994415 312.375427,101.439302 312.660607,104.482006 C312.812011,106.056857 312.425204,107.608854 312.288317,109.170201 C312.124469,111.04631 312.410685,112.716733 310.698569,113.958123 C309.461407,114.85878 307.90588,115.294045 306.568128,116.056539 C304.090692,117.461024 301.430742,119.078467 299.85966,121.111438 C297.683997,123.930796 296.142988,127.991543 298.415094,133.070335 C299.069452,134.531955 299.875215,135.745297 300.779495,136.721788 C301.237856,137.219382 301.732514,137.653609 302.106877,138.21665 C302.989379,139.53699 303.981805,141.20118 305.664885,141.197025 C307.156117,141.188714 308.480388,140.200796 309.778734,139.58997 C311.347742,138.855524 312.478092,138.276901 313.35852,137.572581 C314.141468,136.945134 314.640274,136.220037 315.081006,135.462738 C315.831807,138.177175 317.598885,140.484394 320.43824,142.418677 C326.832491,146.773411 329.334815,137.546611 329.483108,132.759728 C329.617921,128.388373 327.446405,124.369178 324.639198,121.171689 C323.78677,120.200393 322.888712,119.267532 322.045617,118.285847 C320.926675,116.984206 319.822251,115.590109 319.209374,113.964356 C318.428499,111.899181 317.848806,109.688572 317.258743,107.556913 C317.189263,107.316946 317.099043,106.633402 317.442295,106.586655 C317.8094,106.534714 318.408796,107.460303 318.616199,107.686766 C319.491442,108.64248 320.409203,109.561836 321.375704,110.427173 C323.208114,112.066431 325.104819,113.703612 326.789973,115.495576 C328.393203,117.207552 329.663549,119.190659 330.989895,121.114554 C332.538162,123.361522 333.772214,125.848458 335.409665,127.831565 C336.418683,129.05945 337.710807,130.060873 339.025745,130.898162 C343.651881,133.853605 349.088965,135.176023 354.139242,132.341083 C354.710638,132.021127 355.252999,131.636763 355.890765,131.229546 C357.42244,130.254094 357.816506,129.461474 357.95443,128.096464 C358.639899,121.289076 351.461662,113.92488 345.219852,112.292894 C344.259574,112.040461 343.177964,111.824386 342.158576,111.747513 C340.113577,111.589613 337.826953,111.907492 335.552773,112.205633 C333.228816,112.513124 330.888267,113.02734 328.534237,112.825809 C325.177411,112.537017 322.986192,110.618316 320.818825,108.216564 C319.930101,107.228646 319.216633,106.565879 318.376648,105.539524 C318.210726,105.335916 317.324075,104.505898 317.786585,104.138156 C318.100802,103.884684 323.656106,106.029848 325.587033,106.343571 C330.61968,107.722085 335.893952,108.086711 340.767935,106.509782 C342.322425,106.006994 343.834396,105.307868 345.284147,104.38124 C347.190186,103.161665 349.21963,101.470466 349.298443,99.0365106 C349.359627,97.1385863 348.079947,95.442193 346.828267,94.1582114 C343.131298,90.4007991 337.490959,88.2234321 332.369129,87.4713264 C330.150948,87.1461757 327.495145,87.9658047 325.548663,89.1313609 C323.111671,90.5909031 321.31452,93.0082375 320.223577,95.592822 C319.853362,96.4727026 319.488331,97.3702432 319.227003,98.2916766 C318.851602,99.6255216 318.714716,101.055977 317.914138,102.23296 C317.709846,102.535257 317.432962,102.622518 317.101117,102.452151 C316.26528,102.018963 315.453295,101.554611 314.609163,100.685118 C314.360279,100.427491 313.823104,99.9080807 313.871843,99.4946303 C313.925768,99.0489764 314.482647,99.1850619 314.80827,99.1767513 C315.85151,99.1487032 316.80453,98.8401736 317.527331,98.0517091 C318.348649,97.1489745 318.512498,95.7922754 318.92212,94.6703497 C319.036192,94.3649366 319.448925,93.6938588 318.893083,93.6201026 C318.665976,93.5920544 318.328946,93.7665762 318.110135,93.8268278 C316.972526,94.1499008 315.762327,94.374286 315.069599,95.4214166 C314.692124,95.9938065 314.479536,96.9838021 313.814807,97.2975257 C313.48711,97.4491935 311.619441,97.446077 311.163153,97.2507788 C309.229115,96.412451 306.97775,94.3929847 305.012601,92.8222887 C304.197505,92.174065 303.616775,91.718023 302.646127,90.9814995 C302.155617,90.6085631 301.560369,90.1732975 301.597702,89.95099 C301.677552,89.448201 303.442556,89.4741715 304.068915,89.3921047 C306.817012,89.0087801 308.873418,88.0831914 310.810567,86.9820421 C311.992767,86.3099255 313.256892,85.2804548 314.071988,83.7762433 C316.359649,79.504615 313.706958,76.1513037 311.049081,72.8759039 C310.668496,72.4105125 309.966435,71.680222 310.071173,71.1898989 C310.191467,70.6133537 311.455592,70.2497667 311.958546,69.9007231 C312.640903,69.4259823 313.256892,68.9003394 313.690365,68.5138983 C314.720124,67.5935037 315.824548,66.1786307 316.286021,64.5632654 C316.963193,62.1957944 316.582608,59.9332442 316.160541,58.2275016 C316.141875,58.1516677 316.106617,58.0758339 316.084839,58 L280.218544,58 C281.789626,60.8671435 283.840847,63.8121985 286.421984,65.7869955 C281.809329,64.738826 277.04527,64.6733804 272.503132,66.2108341 C271.682851,65.8451694 270.600205,64.2765511 269.918884,63.5514546 C268.954458,62.527178 268.072993,61.6722291 267.310785,60.8526 C266.403394,59.8688374 265.546817,58.9474039 264.715129,58 L260.013291,58 C259.996699,59.0388201 259.934477,63.1203443 259.71463,63.2657791 C259.316415,63.5192512 258.292878,59.9914181 258.213028,59.7171696 C258.040883,59.1385468 257.841776,58.5713511 257.652001,58 L243.638781,58 C243.639818,58.103882 243.627374,58.2036087 243.630485,58.3074908 C242.699243,58.4196833 241.792889,58.2971025 240.757946,58 L210,58 C210.410659,59.7296355 211.839669,60.8162413 213.549712,61.4291452 M314.216133,102.546684 C315.02397,103.632251 315.498924,105.00661 315.926175,106.280203 C316.567052,108.190593 317.063784,110.169546 317.481702,112.17343 C317.666291,113.061621 317.837399,113.959161 317.9971,114.853586 C318.406722,117.153533 317.748216,119.757855 317.122894,121.960154 C316.795196,123.119477 316.416685,124.265296 316.054766,125.413192 C315.563219,123.247252 314.783382,121.02106 314.001471,118.319089 C313.68518,117.226251 313.242374,116.16146 313.065044,115.033301 C312.799567,113.347296 313.285928,111.66233 313.331557,109.976325 C313.384445,107.962053 313.597034,105.94882 313.658218,103.931431 C313.684143,103.0609 313.550368,102.168553 313.917472,102.17998 C314.036729,102.334764 314.159097,102.47085 314.216133,102.546684 M245.671336,112.236798 C246.231325,112.625316 244.669577,115.013564 244.198771,115.067582 C243.227085,115.165232 243.91048,113.658942 244.332546,113.081358 C244.702761,112.575453 245.406896,112.050849 245.671336,112.236798 M256.370248,83.8281843 C256.815128,87.2209707 256.163881,90.8537246 254.412358,93.7229458 C253.051791,95.9512149 250.960126,97.4824357 249.314379,99.4696986 C248.054402,100.987415 246.013552,104.354231 246.237547,106.395512 C246.271769,106.728973 246.661688,107.391741 246.684502,107.609893 C246.871165,109.419518 245.759482,110.254729 244.8075,111.056698 C244.209141,111.56572 243.57656,112.045655 243.040422,112.022801 C241.758668,111.985403 241.568894,110.540404 240.69054,110.76479 C239.988479,110.942428 240.400175,111.985403 240.852314,112.27835 C241.394675,112.632588 242.534357,112.45495 242.956423,112.765557 C243.539227,113.184202 243.334935,114.546095 242.734501,114.737238 C242.487691,114.81411 241.941183,114.626084 241.321046,114.314438 C239.848481,113.16758 238.403915,111.982287 236.944832,110.821925 C238.483766,109.541059 239.943887,108.136575 241.158235,106.536792 C241.789778,105.709891 242.371545,104.850787 242.999978,104.02908 C243.108865,103.846248 243.216715,103.660299 243.324565,103.477467 C245.761556,99.5008632 248.110401,95.4608918 249.365193,90.9357914 C250.402211,87.1742238 250.642799,83.2007369 251.73063,79.4578681 C253.101568,81.0908933 254.646724,82.564979 256.370248,83.8281843" id="Fill-7" fill="#7F7977"></path>
                            <path d="M366.938863,72.1894185 C366.500741,73.8830774 365.926155,75.6190005 364.96988,77.0961844 C364.481482,77.8528159 363.73452,78.5774916 362.855199,78.8496316 C361.746043,79.1887757 359.465142,79.316599 362.556619,79.8186148 C363.744781,80.0103497 365.081719,79.7330556 366.224734,79.9866406 C369.340837,80.6752371 372.156308,82.3359094 375.362702,82.6647451 C378.662467,83.0059509 382.105878,82.7472118 385.254814,81.6390661 C385.445659,81.572062 385.658051,81.7431803 385.550316,81.9184219 C381.079832,89.0693116 381.504615,98.2468193 380.020952,100.902245 C378.566019,103.511284 377.404535,104.202973 375.778251,105.766747 C374.770674,106.730576 374.238156,107.487208 375.587407,106.898602 C378.931291,105.433788 383.981491,107.530503 389.883309,106.081151 C393.410856,105.218344 398.170685,103.639108 400.935879,101.988744 C407.828858,97.9179835 411.447723,91.2268454 412.083872,82.8090618 C412.48403,77.0755677 411.403603,73.5408408 411.089633,70.9307712 C410.937778,69.5886264 411.279452,67.6929243 411.676532,65.9848337 C411.713469,65.8168079 411.941252,65.5642538 411.991528,65.7250637 C417.994924,85.1304981 415.600133,94.2554332 414.344252,97.8138693 C412.179294,103.964851 402.533433,110.170466 397.491442,121.870423 C396.097045,125.107239 395.372657,128.653305 393.697123,131.76539 C392.570524,133.857982 391.091992,135.356813 388.842898,136.225806 C387.737846,136.65257 387.944082,136.939142 388.74645,137.066965 C389.676048,137.217467 392.263736,137.348383 394.718039,137.17108 C398.808886,136.872138 402.843299,135.830996 406.556561,134.076518 C407.289158,133.731189 408.00739,133.359059 408.712284,132.960126 C414.88703,129.466633 419.183086,124.610377 420.618525,118.524338 C420.647254,118.413008 420.807317,118.380022 420.822708,118.493413 C421.049464,120.288094 421.247491,121.935365 421.317262,122.805389 C421.731785,128.056453 422.902504,133.313702 425.321921,138.017394 C427.959886,143.156097 432.32366,146.565062 435.698327,151.121345 C437.10401,153.020139 438.636923,155.503417 439.028873,158.064006 C439.358234,160.206077 439.36952,162.853257 439.141738,164.785038 C439.124295,164.973681 439.35926,165.082949 439.460838,164.922139 C440.015929,164.00779 440.159576,162.935724 440.395566,161.983234 C441.403144,158.111424 443.508591,154.627208 444.3756,150.712104 C445.959815,143.574615 445.688939,133.961065 442.167548,127.435891 C438.820585,121.240584 434.813875,117.420316 427.725947,116.195686 C424.354359,115.609142 422.936363,117.582157 421.866197,116.462672 C421.520419,116.106004 421.291611,115.165884 421.1336,114.147421 C421.139756,113.819616 421.147965,113.496965 421.13873,113.161944 C420.976615,108.444852 418.005185,102.266038 416.895003,98.4571092 C416.499975,97.0943478 417.962091,90.4733064 417.00992,80.1732214 C416.99966,80.0598297 417.178192,80.0752922 417.232572,80.1763139 C417.625548,80.8906813 418.030836,81.6009253 418.455619,82.2967377 C419.884902,84.6563148 421.676378,86.9251786 422.832733,89.4569049 C423.08514,90.0145856 423.175432,90.5970063 423.289323,91.2031362 C424.397453,97.1077486 428.041969,102.940203 432.464229,106.502762 C436.25547,109.554028 440.877808,111.133265 445.34624,112.560969 C451.488153,114.523675 457.131407,115.256597 462.870084,111.444576 C464.161876,110.590016 465.4116,109.597323 466.651064,108.536596 C468.532833,106.93365 469.364956,105.461621 471.337017,105.298749 C475.894715,104.920433 473.481454,104.346259 472.262511,103.923618 C469.556827,102.978343 467.164087,100.976465 465.505996,98.6529675 C461.568031,93.1246093 458.406782,86.712827 452.168421,83.4079759 C448.047819,81.2267329 443.094068,80.6443121 438.505589,80.4061897 C435.372044,80.2412564 431.980961,80.6504971 429.478434,82.721441 C427.69927,84.1955324 426.28743,86.5365545 424.051676,86.4375945 C421.595321,86.3324495 419.386243,81.5638153 418.410473,79.8031523 C416.727757,76.7673486 416.195239,73.6367083 415.46059,70.2865005 C415.057354,68.4681108 414.594607,66.6600294 414.071324,64.8715339 C413.383873,62.5160801 412.685135,60.2410313 411.978189,58 L409.50234,58 C409.987659,59.4606906 410.471953,60.9399362 410.959325,62.4676309 C411.060904,62.7758501 411.103998,63.1046858 411.079373,63.4304291 C410.694605,68.4938816 407.813467,69.8999381 406.129726,70.8173796 C402.835091,72.458466 398.648822,73.1532475 394.797045,74.5675506 C394.635955,74.6294006 394.530273,74.4160182 394.639034,74.2789173 C395.040218,73.7696858 395.433193,73.2563308 395.816935,72.7357601 C398.047559,69.7319123 399.852375,66.5363294 401.150323,63.0191267 C401.754664,61.3770094 402.272818,59.6998439 402.715044,58 L376.580619,58 C375.619214,58.6937507 374.691668,59.4369814 373.818503,60.286388 C370.301216,63.7077232 368.168066,67.4496476 366.938863,72.1894185" id="Fill-9" fill="#7F7977"></path>
                            <g id="Group-20" transform="translate(464.000000, 56.000000)">
                                <mask id="mask-2" fill="white">
                                    <use xlink:href="#path-1"></use>
                                </mask>
                                <g id="Clip-19"></g>
                                <path d="M1.11703276,14.985984 C0.0977568966,18.363904 4.10467069,20.798544 6.63963621,21.762624 C8.99251552,22.657024 11.7136362,22.722544 14.0756707,21.828144 C16.9737914,20.733024 18.3368948,18.220384 20.1689466,15.871024 C20.4100328,15.555904 20.7884466,14.810224 21.1861879,14.671904 C21.4649121,14.581424 23.3091707,14.834144 23.4108948,14.972464 C23.6743603,15.317744 23.1759121,16.406624 23.0650328,16.765424 C22.1739293,19.626464 21.0590328,20.634224 20.6389121,24.781744 C20.5656707,25.515984 20.6073776,28.783664 21.4109983,29.267264 C21.9348776,29.576144 22.2827741,28.514304 22.7679983,27.971424 C22.9999293,27.710384 23.4169983,27.929824 23.3793603,28.271984 C23.3152741,28.885584 22.9053259,29.519984 22.737481,30.152304 C22.1067914,32.538064 21.2645155,35.393904 21.9186017,38.589824 C22.5889638,41.873104 23.4444638,44.894304 24.7343259,47.997664 C25.4016362,49.602384 25.5521879,51.533664 26.9742914,51.843584 C29.0921879,52.301184 31.5895155,51.177984 33.30255,50.211824 C36.0999638,48.642464 37.8770845,46.255664 40.1190845,44.519904 C40.3469466,44.350384 40.6673776,44.493904 40.7284121,44.766384 C40.8565845,45.324864 40.9369466,45.847984 41.1871879,46.699744 C41.3743603,47.332064 41.8453431,49.025184 42.4353431,48.880624 C43.0843431,48.713184 42.6123431,45.766864 42.6377741,45.150144 C42.6896534,43.686864 42.6632052,42.002064 43.2623603,41.010944 C44.8818086,38.318384 47.1004121,36.125024 48.5428603,33.230704 C49.9629293,30.377984 51.0625672,27.665664 51.8438086,24.271104 C53.1448603,18.624944 53.9393259,12.882064 55.4041534,7.265024 C55.6187914,6.450704 55.6147224,5.562544 55.8527569,4.813744 C56.2759293,3.455504 57.5200155,2.299024 58.5901534,1.058304 C58.6949293,0.937664 58.8322569,0.783744 58.9807741,0.620464 L53.5843086,0.620464 C54.01155,1.212224 54.7246362,1.595984 54.8426362,2.010944 C55.0206534,2.617264 54.5700155,3.463824 54.1671879,3.814304 C53.3340672,4.561024 51.7420845,5.084144 50.5905672,5.997264 C46.2744121,9.441744 40.8626879,10.718864 36.3583431,13.744224 C33.7592914,15.490384 31.3830155,17.681664 29.1776362,19.877104 C28.6395155,20.410624 28.0983431,21.261344 27.5703948,21.594144 C27.49105,21.637824 27.3903431,21.625344 27.3282914,21.563984 C27.2774293,21.506784 27.3669466,21.435024 27.3761017,21.359104 C27.6080328,19.767904 28.2163431,18.543824 28.4004638,16.703024 C28.4676017,16.065504 28.3791017,15.075424 28.6232397,14.687504 C28.8877224,14.277744 29.6170845,14.239264 30.3423776,13.962624 C32.0767741,13.295984 33.8681362,11.842064 36.0053603,11.223264 C41.6103603,9.609184 48.7452914,8.982064 51.095119,2.706704 C51.3372224,2.057744 51.4043603,1.196624 51.8783948,0.620464 L29.3892224,0.620464 C28.6649466,0.770224 27.8277569,0.851344 27.6578776,0.778544 C27.5907397,0.751504 27.5225845,0.696384 27.4534121,0.620464 L4.84522241,0.620464 C4.29896379,1.177904 3.79542931,1.779024 3.37836034,2.400944 C0.99292931,5.956704 2.32755,10.972624 1.11703276,14.985984" id="Fill-18" fill="#7F7977" mask="url(#mask-2)"></path>
                            </g>
                            <g id="Group-23" transform="translate(59.000000, 0.000000)">
                                <mask id="mask-4" fill="white">
                                    <use xlink:href="#path-3"></use>
                                </mask>
                                <g id="Clip-22"></g>
                                <path d="M10.1502071,54.6926035 C13.087929,57.7129559 16.756716,60.0405859 20.608787,61.7270352 C22.0988757,62.3836784 23.7059763,62.8887885 25.2985799,63.3897753 C25.4621893,63.4402863 25.5284615,63.6299604 25.4394083,63.7742775 C23.6107101,66.7307181 22.2096746,69.9335286 21.5231361,73.1518018 C21.0364497,75.4577841 21.0664793,77.8080925 21.5210651,80.1140749 C22.2904438,84.0003304 24.1553846,87.5103304 24.6368935,91.471837 C25.0438462,94.8055639 24.9723964,98.2361894 25.8908876,101.493634 C26.4749112,103.576956 27.8179586,105.174753 29.1216568,106.844709 C30.4056805,108.494048 31.3252071,110.470163 32.3658876,112.172075 C33.558787,114.127573 33.7182544,115.326436 34.3871893,117.385018 C34.4814201,117.667467 35.1327515,120.001282 35.8110059,119.722956 C36.1289053,119.59204 35.9476923,118.724075 35.9404438,118.652947 C35.9031657,118.208656 35.8534615,117.882912 35.823432,117.532427 C35.5904438,114.834727 36.015,112.124656 35.9652959,109.420771 C35.9155917,106.753996 35.8710651,103.936718 38.1181065,102.071934 C40.9999112,99.6690529 44.6231361,98.6268767 46.9436982,95.5271498 C49.0405917,92.7181189 50.0823077,89.28337 51.1084911,85.9815991 C53.7086391,77.5967709 51.5786095,67.470859 47.2916272,59.9756432 C46.3669231,58.3623833 44.8260947,56.1687621 41.7527219,53.0659427 C39.8163314,51.1104449 39.5802367,51.1918811 39.8577515,50.1249648 C40.1207692,49.1250529 40.6737278,47.7189912 41.1013905,46.5644537 C41.7257988,44.8780044 41.9184024,45.0563392 42.0323077,46.6860925 C42.3874852,51.831 43.7491716,43.9770529 43.8661834,43.5544097 C43.9686982,43.1740308 44.1126331,42.1844273 44.594142,42.085467 C45.0352663,41.9999075 45.8367456,43.2925771 46.1971006,43.7904714 C47.6281657,45.7820485 48.9784615,47.9488678 50.1599704,49.7899427 C51.8499112,52.4237313 53.6247633,55.1461718 55.277426,57.7562511 C58.6438462,63.0764009 62.3260947,68.438815 65.3673669,73.675467 C66.9910355,76.4680044 68.2595266,78.3286652 69.3147041,80.8768943 C70.4030178,83.5117137 69.8407396,85.4063921 68.8290533,88.8555727 C68.575355,89.7245683 68.3485799,90.6049031 68.1590828,91.4903921 C67.9726923,92.3470176 67.8681065,93.3345595 67.350355,94.0695463 C67.0863018,94.4416784 66.7818639,94.8694758 66.8626331,95.3570617 C66.8957692,95.5642599 67.0355621,95.696207 67.1173669,95.8745419 C67.2519822,96.1600837 67.2530178,96.3868678 67.173284,96.6806564 C67.0780178,97.0187709 66.9827515,97.3527621 66.8905917,97.6898458 C66.7052367,98.3609207 66.5188462,99.0319956 66.3365976,99.7030705 C66.0746154,100.665872 65.8178107,101.626612 65.5713609,102.592507 C65.1561243,104.231537 65.0132249,105.923141 64.7595266,107.590004 C64.6052367,108.591978 64.4167751,110.175344 63.7923669,110.759828 C62.5010947,111.969 60.1453254,112.396797 58.5382249,113.076119 C56.6173669,113.891511 54.7058284,114.81411 53.0521302,116.098533 C51.1312722,117.600463 49.502426,119.39515 48.0019822,121.310445 C47.0834911,122.488692 46.2167751,123.70611 45.3863018,124.947238 C43.3494675,127.97996 41.6999112,131.024022 40.7047929,134.572163 C39.7645562,137.914137 40.198432,141.529282 40.0721006,144.954753 C39.9871893,147.237026 40.0741716,149.409 39.1401479,151.631485 C38.7383728,152.57367 38.0942899,153.542656 37.3104142,154.54463 C36.8910355,155.082727 35.6070118,156.507344 35.3491716,157.190789 C35.1648521,157.676313 36.2262426,156.554762 36.2997633,156.481573 C36.6632249,156.111502 36.9614497,155.779573 37.2058284,155.56722 C39.4507988,153.616877 42.3750592,152.777775 45.2641124,151.317079 C49.2300888,149.31107 52.7725444,147.314339 55.1780178,144.879502 C62.8645562,137.087405 68.231568,125.834789 67.1432544,115.037802 C66.9868935,113.504947 66.5633728,112.00611 66.5633728,110.4547 C66.5633728,108.800207 66.4857101,107.108604 66.7404438,105.469573 C67.0158876,103.728489 67.3803846,102.001837 67.8049408,100.287555 C67.8867456,99.9710881 68.0576036,99.5494758 68.2792012,100.294771 C68.6871893,101.680216 69.2380769,103.017211 69.7651479,104.363485 C70.6681065,106.658128 71.4115976,109.061009 71.6922189,111.519555 C72.0235799,114.429608 71.3080473,117.633449 71.1382249,120.559996 C70.9321598,124.200912 71.9459172,127.51093 72.5226923,131.040515 C73.0042012,133.969123 73.7445858,136.968859 74.9416272,139.695423 C76.2287574,142.627123 77.6204734,144.993925 79.752574,147.410207 C80.6286095,148.399811 81.7438462,149.768762 83.087929,150.102753 C84.9632249,150.563537 87.1429586,151.004736 88.869142,152.068559 C90.0123373,152.775714 91.5169231,153.923035 92.1848225,155.376515 C93.0681065,157.296965 93.4792012,159.377194 94.3490237,161.274965 C94.5012426,161.609987 95.0593787,163.192322 95.4073077,163.057282 C95.6185503,162.973784 95.523284,162.230551 95.4994675,162.019229 C95.4539053,161.646066 95.3161834,161.235793 95.2695858,160.930665 C94.9578994,158.817449 94.8667751,156.548577 95.3669231,154.578648 C96.1249112,151.600559 98.2124852,149.415185 98.3895562,146.234022 C98.5459172,143.39922 97.8676627,140.67678 97.1272781,137.688383 C95.1132249,129.530339 90.1676627,122.139238 84.8027219,115.789282 C82.385858,112.923555 76.252574,111.213396 74.2395562,108.693 C72.2679586,106.223115 71.175503,103.460471 70.1752071,100.056648 C69.2339349,96.8528062 69.4027219,93.5974229 70.2352663,90.6533524 C70.8006509,88.6648678 71.4343787,86.5671145 72.1426627,84.6270793 C72.9327515,82.47263 73.8709172,84.1869119 75.3040533,85.8568678 C77.4827515,88.3978811 79.5444379,90.7657137 81.4311243,93.1943656 C84.5345266,97.1878282 87.6027219,100.87307 89.8777219,104.602639 C90.1604142,105.065485 90.4223964,105.538639 90.6812722,106.017978 C91.6463609,107.803388 94.2164793,112.565855 94.2164793,112.565855 C95.9126331,115.794436 97.3064201,119.091053 98.9186982,122.196965 C100.513373,125.275044 102.066627,128.504656 103.226391,131.770348 C103.804201,133.393916 104.501095,134.924709 104.841775,136.525599 C105.515888,139.726348 105.972544,142.838445 106.51929,145.992806 C106.790592,147.547308 107.110562,149.145106 107.271065,150.703731 C107.585858,153.778718 108.264112,157.11863 108.014556,160.118366 C107.87787,161.756366 107.363225,163.197476 106.967663,164.7293 C106.297692,167.309485 105.764408,169.491767 104.02787,171.569934 C102.045917,173.955291 99.365,175.638648 97.4969527,178.149767 C94.3645562,182.362797 91.9321598,186.452128 92.196213,191.865053 C92.4229882,196.550207 94.2599704,201.501317 95.2747633,206.077203 C96.383787,211.091194 98.2487278,216.576278 101.542663,220.627467 C103.012041,222.436586 104.865592,223.834401 106.15997,225.794022 C107.386006,227.645405 108.209231,229.724604 109.085266,231.755352 C109.175355,231.959458 110.513225,235.142683 110.573284,233.560348 C110.59503,232.95937 110.522544,232.567652 110.441775,232.045018 C110.106272,229.923555 110.167367,227.923731 110.774172,225.958956 C111.427574,223.856048 112.372988,221.787159 113.863077,220.132665 C115.237189,218.609088 117.141479,217.619485 118.324024,215.915511 C120.320473,213.039476 120.842367,208.846031 121.612781,205.491687 C123.919882,195.461643 122.012485,185.638797 115.126391,177.745678 C112.836893,175.123229 109.431124,173.682119 107.309379,170.960709 C106.294586,169.660824 107.816775,166.631194 108.166775,165.225132 C108.841923,162.521247 108.926834,163.779899 110.226391,165.158128 C111.427574,166.431211 112.10997,167.337317 112.918698,168.684621 C113.300799,169.314463 114.021509,171.251405 114.070178,170.039141 C114.112633,169.020674 113.490296,167.554824 113.176538,166.610577 C112.718846,165.230286 112.316036,163.874736 111.767219,162.694427 C111.427574,161.956348 111.050651,161.360524 110.83216,160.73893 C110.149763,158.813326 110.149763,156.801132 109.817367,154.899238 C109.047988,150.489317 108.398728,145.786639 107.571361,141.308683 C107.285562,139.762427 107.033935,138.825396 108.644142,139.537705 C110.424172,140.329388 112.399911,142.01893 113.095769,143.851758 C113.545178,145.035159 113.879645,146.262885 114.316627,147.453502 C115.395621,150.398604 117.014112,153.229282 119.620473,155.082727 C122.345917,157.018639 125.683343,157.712392 128.820917,158.696841 C134.256272,160.410093 139.25568,162.308894 145.050355,161.586278 C147.73645,161.252286 150.32003,160.45648 153.036154,160.203925 C155.927278,159.935907 158.803905,159.35967 161.709527,159.276172 C163.66145,159.219476 165.995473,160.482251 168.074763,160.952313 C168.641183,161.079106 169.217959,161.316198 169.679793,161.29352 C169.767811,161.288366 170.149911,161.270841 170.160266,161.067767 C170.171657,160.886339 169.542071,160.495652 169.297692,160.337934 C168.908343,160.081256 168.585266,159.884366 168.32432,159.709123 C166.553609,158.514383 163.90997,156.580533 162.942811,154.567308 C160.549763,149.582181 158.711746,144.120806 154.228018,140.553079 C147.808935,135.445282 141.23142,131.211634 132.599467,132.332154 C128.520621,132.860974 124.524615,133.467106 120.370178,135.544242 C118.30642,136.575079 116.287189,138.133705 114.153018,139.048057 C111.691627,140.106727 109.567811,138.823335 107.980385,136.771969 C105.346065,133.357837 103.964704,128.475793 102.104941,124.597784 C100.245178,120.714621 98.4164793,117.084013 96.3485799,113.186419 C96.204645,112.91737 95.7573077,112.101978 95.333787,111.301018 C95.2012426,111.043308 94.4328994,109.665079 94.7901479,109.401185 C95.2147041,109.08678 96.6022781,110.633035 96.9833432,110.168128 C97.3395562,109.735176 96.0834911,108.898137 96.3537574,108.481678 C96.5225444,108.221907 97.273284,108.455907 97.2950296,108.463123 C98.9642604,108.884736 100.563077,109.219758 102.111154,109.405308 C102.693107,109.475405 103.563964,109.379537 104.109675,109.804242 C105.578018,110.936101 106.155828,112.829749 107.108491,114.349203 C108.107751,115.942877 109.520178,117.353062 110.980237,118.726137 C113.59074,121.179529 116.406272,123.480357 119.833787,124.688498 C123.470473,125.977044 127.437485,126.187335 131.267811,126.257432 C134.94074,126.32959 138.738964,126.005907 142.091923,124.411203 C144.468402,123.276251 146.513521,122.084604 149.138521,121.588771 C151.44355,121.157881 153.804497,120.912542 155.813373,119.591009 C158.654793,117.722101 161.538669,115.668674 164.569586,114.12448 C166.204645,113.290533 167.945325,113.080242 169.662189,112.480295 C170.587929,112.160736 171.985858,111.565943 173.101095,110.980427 C173.258491,110.89796 174.196657,110.401097 174.083787,110.102154 C173.962633,109.763009 172.898136,110.153696 172.781124,110.172251 C171.283787,110.462947 170.24,110.558815 168.793402,110.532013 C165.598876,110.472225 163.615888,109.167185 161.018846,107.593097 C159.261598,106.528242 157.658639,105.608736 156.190296,104.13567 C154.838964,102.775996 153.562189,101.196753 152.165296,99.9710881 C150.392515,98.4052467 148.342219,97.7888062 146.117959,97.1156696 C142.204793,95.9394846 138.580533,94.5365154 134.442663,94.3437489 C126.156568,93.9551233 117.910858,97.5816079 111.371657,102.438912 C109.943698,103.503767 108.60997,104.685106 107.164408,105.726251 C106.150651,106.462269 104.472101,107.885855 103.169438,107.918841 C102.278905,107.942551 101.438077,107.748753 100.513373,107.630207 C97.8666272,107.295185 95.1836391,106.518965 92.7512426,104.477907 C91.9249112,103.786216 91.2725444,102.911035 90.442071,101.836903 C87.5944379,98.1454758 81.6009467,89.8101278 78.4178107,86.0671586 C78.006716,85.583696 77.5873373,85.1115727 77.1741716,84.6301718 C75.4448817,82.6169471 70.8348225,77.242163 70.8348225,77.242163 C70.1741716,76.3793524 69.2494675,75.0938987 71.3111538,76.0835022 C72.1198817,76.4721278 72.8861538,76.9287885 73.6824556,77.3009207 C75.8994675,78.3317577 78.527574,78.8811938 80.6161834,80.189326 C81.0728402,80.4789912 81.4176627,80.8768943 81.7914793,81.2758282 C85.4405917,85.1682687 91.0095266,87.6598018 96.1052367,88.0195639 C100.474024,88.3329383 104.785858,87.0876872 108.908195,85.8084185 C114.575503,84.0498106 119.276686,81.6263128 121.905828,75.7082775 C122.492959,74.377467 122.988964,72.9610969 123.44355,71.5086476 C124.137337,69.298533 124.080385,67.7440308 125.526982,66.5802159 C128.866479,63.8845771 126.730237,64.7226476 125.590148,65.0494229 C124.81145,65.2689912 124.003757,65.3957841 123.191923,65.4298018 C111.559083,65.8751233 100.534083,58.5767974 89.3485799,64.5309119 C89.1994675,64.6113172 89.0348225,64.4690617 89.0627811,64.3010352 C89.1331953,63.8752996 89.2118935,63.448533 89.2802367,63.018674 C89.7016864,60.305511 89.4158876,57.5263744 89.7192899,54.7967181 C90.0568639,51.7454405 90.6553846,48.6632379 90.1127811,45.6006211 C89.6115976,42.7720044 87.5799408,39.0331586 85.5037574,37.0158106 C85.0885207,36.6096608 83.5818639,35.6324273 83.7651479,35.0706211 C83.9039053,34.6582863 84.8741716,34.881978 85.2790533,34.9427974 C87.0901479,35.223185 88.7790533,35.6045947 90.3053846,35.6808767 C92.6797929,35.7983921 94.7238757,35.925185 96.912929,36.1952643 C99.9842308,36.5756432 103.611598,36.9302511 107.062929,38.5228943 C108.015592,38.9599692 108.757012,39.5423921 109.751095,39.9361718 C111.27432,40.542304 110.320621,38.9207974 109.862929,38.3878546 C108.499172,36.7900573 106.62284,35.3839956 105.195917,34.0768943 C104.181124,33.1439868 103.367219,32.0945947 102.463225,31.144163 C98.3336391,26.7837225 95.3586391,22.5201806 89.4500592,20.3688238 C83.6605621,18.2587004 77.6266864,18.9266828 71.6124852,19.0606916 C68.5826036,19.1307885 65.5413314,19.5678634 62.5321598,19.8245419 C60.1701775,20.0265859 57.9365976,20.7048767 56.9704734,23.1520837 C56.3377811,24.7457577 56.8130769,25.5322863 54.8828994,25.711652 C52.800503,25.907511 51.3922189,25.2446828 49.5158876,24.4767093 C47.0472485,23.4716432 40.6115976,21.0811322 36.7367456,18.6308326 C36.4654438,18.4607445 36.2863018,18.1824185 36.1672189,17.8875991 C36.0988757,17.7195727 36.031568,17.5505154 35.9611538,17.3732115 C34.0113018,12.4396256 32.348284,7.39677093 30.3466568,2.48586344 C30.0442899,1.74262996 29.6953254,1.02825991 29.358787,0.306674009 L25.7397041,0.306674009 C26.7865976,2.48380176 28.1721006,4.8052467 28.660858,7.13287665 C28.8306805,7.94311454 28.5831953,8.90900881 28.6888166,9.90067401 C28.7861538,10.7913172 28.7126331,11.994304 29.3277219,12.7385683 C30.0049408,13.5549912 30.937929,13.0004009 31.5053846,13.7879604 C32.0976923,14.6167533 32.4207692,15.80737 32.8888166,16.8464537 C35.2766864,22.1377401 37.1664793,27.0135991 39.2571598,32.2069559 C40.0814201,34.2521366 40.929497,36.3942159 41.446213,38.3589912 C41.6999112,39.3300396 41.4389645,40.3464449 41.2442899,41.3298634 C40.8269822,43.4461718 40.1052367,45.1625154 39.3689941,47.2262511 C38.2827515,50.2620661 39.1401479,49.4064714 32.156716,55.7007621 C30.5692899,57.1325947 29.0584911,58.7839956 27.6781657,60.5683744 C27.5570118,60.7260925 27.3271302,60.8271145 27.2111538,60.6652731 C26.2615976,59.3519868 25.6289053,58.0046828 25.1152959,56.8243744 C23.5226923,53.1473789 22.7098225,49.0477401 23.3166272,45.0542775 C23.9493195,40.8948502 24.8160355,37.5023656 23.5537574,33.3274758 C22.4954734,29.8205683 20.4865976,26.6723921 18.150503,23.8747004 C17.3894083,22.966533 17.2703254,22.1583568 17.2475444,21.3141013 C17.1792012,18.697837 18.2126331,16.224859 18.7935503,13.7158018 C19.3496154,11.3077665 19.2056805,8.9255022 19.2823077,6.47932599 C19.3465089,4.42589868 19.4666272,2.36731718 19.5422189,0.306674009 L0.125502959,0.306674009 L0.125502959,46.0284185 C0.686745562,46.3232379 1.27284024,46.5953789 1.87343195,46.8623656 C5.65198225,48.5467533 7.41026627,51.8804802 10.1502071,54.6926035 M44.1229882,36.2437137 C41.9639645,32.6512467 40.6240237,29.0340396 39.1971006,25.4477577 C38.64,24.0520044 38.0911834,22.6912996 37.5392604,21.3171938 C37.4874852,21.1914317 37.6676627,21.1347357 37.7950296,21.1852467 C41.627426,22.6871762 46.9923669,25.066348 50.2117456,26.6868238 C52.9931065,28.0836079 56.7219527,28.3990441 58.8830473,30.8493436 C59.5457692,31.5977313 58.7184024,32.978022 58.0908876,34.0397841 C56.3988757,36.893141 54.9222485,39.9598811 55.2877811,43.3729824 C55.5145562,45.5016608 56.321213,47.6014758 57.4799408,49.3868855 C59.7746154,52.9319339 63.0374852,55.5131498 66.6814201,57.5758546 C70.4019822,59.6828855 75.0762426,59.5674317 78.6394083,61.7888855 C80.5147041,62.9588855 82.4894083,64.1845507 83.9432544,65.8874934 C84.315,66.3214758 84.6877811,66.7307181 85.0036095,67.1100661 C85.206568,67.3543744 85.0698817,67.7007357 84.8513905,67.9316432 C83.8355621,69.0160837 82.9978402,70.2489648 82.5598225,71.5808062 C81.8805325,73.6342335 81.9012426,76.15463 80.131568,77.2627797 C78.4209172,78.3317577 74.8142604,76.3381189 73.3365976,75.5938546 C69.4120414,73.6177401 66.6555325,71.0293084 64.2935503,67.3739604 C61.5225444,63.0805242 58.7515385,58.7891498 55.9618935,54.5091145 C54.3692899,52.0639692 52.7715089,49.623978 51.1685503,47.1850176 C48.7889645,43.5678106 46.354497,39.9495727 44.1229882,36.2437137" id="Fill-21" fill="#7F7977" mask="url(#mask-4)"></path>
                            </g>
                        </g>
                    </g>
                </g>
            </g>
        </g>
    </g>
</svg>